<?xml version="1.0" encoding="UTF-8" standalone="no"?>
<!DOCTYPE svg PUBLIC "-//W3C//DTD SVG 1.1//EN"
 "http://www.w3.org/Graphics/SVG/1.1/DTD/svg11.dtd">
<!-- Generated by graphviz version 11.0.0 (20240519.1550)
 -->
<!-- Title: snakemake_dag Pages: 1 -->
<svg width="1018pt" height="188pt"
 viewBox="0.00 0.00 1017.73 188.00" xmlns="http://www.w3.org/2000/svg" xmlns:xlink="http://www.w3.org/1999/xlink">
<g id="graph0" class="graph" transform="scale(1 1) rotate(0) translate(4 184)">
<title>snakemake_dag</title>
<polygon fill="white" stroke="none" points="-4,4 -4,-184 1013.73,-184 1013.73,4 -4,4"/>
<!-- 0 -->
<g id="node1" class="node">
<title>0</title>
<path fill="none" stroke="#56d8a9" stroke-width="2" d="M435.73,-36C435.73,-36 405.73,-36 405.73,-36 399.73,-36 393.73,-30 393.73,-24 393.73,-24 393.73,-12 393.73,-12 393.73,-6 399.73,0 405.73,0 405.73,0 435.73,0 435.73,0 441.73,0 447.73,-6 447.73,-12 447.73,-12 447.73,-24 447.73,-24 447.73,-30 441.73,-36 435.73,-36"/>
<text text-anchor="middle" x="420.73" y="-14.88" font-family="sans" font-size="10.00">all</text>
</g>
<!-- 1 -->
<g id="node2" class="node">
<title>1</title>
<path fill="none" stroke="#59d856" stroke-width="2" d="M84.98,-180C84.98,-180 40.48,-180 40.48,-180 34.48,-180 28.48,-174 28.48,-168 28.48,-168 28.48,-156 28.48,-156 28.48,-150 34.48,-144 40.48,-144 40.48,-144 84.98,-144 84.98,-144 90.98,-144 96.98,-150 96.98,-156 96.98,-156 96.98,-168 96.98,-168 96.98,-174 90.98,-180 84.98,-180"/>
<text text-anchor="middle" x="62.73" y="-158.88" font-family="sans" font-size="10.00">read_kmer</text>
</g>
<!-- 1&#45;&gt;0 -->
<g id="edge1" class="edge">
<title>1&#45;&gt;0</title>
<path fill="none" stroke="grey" stroke-width="2" d="M38.15,-143.14C15.15,-124.31 -12.93,-94.34 6.73,-72 31.22,-44.18 281,-26.97 380.32,-21.19"/>
<polygon fill="grey" stroke="grey" stroke-width="2" points="380.22,-24.7 390,-20.63 379.82,-17.71 380.22,-24.7"/>
</g>
<!-- 8 -->
<g id="node9" class="node">
<title>8</title>
<path fill="none" stroke="#afd856" stroke-width="2" d="M97.73,-108C97.73,-108 27.73,-108 27.73,-108 21.73,-108 15.73,-102 15.73,-96 15.73,-96 15.73,-84 15.73,-84 15.73,-78 21.73,-72 27.73,-72 27.73,-72 97.73,-72 97.73,-72 103.73,-72 109.73,-78 109.73,-84 109.73,-84 109.73,-96 109.73,-96 109.73,-102 103.73,-108 97.73,-108"/>
<text text-anchor="middle" x="62.73" y="-93.25" font-family="sans" font-size="10.00">assembly_kmer</text>
<text text-anchor="middle" x="62.73" y="-80.5" font-family="sans" font-size="10.00">sample: verkko</text>
</g>
<!-- 1&#45;&gt;8 -->
<g id="edge10" class="edge">
<title>1&#45;&gt;8</title>
<path fill="none" stroke="grey" stroke-width="2" d="M62.73,-143.34C62.73,-136.75 62.73,-129.08 62.73,-121.67"/>
<polygon fill="grey" stroke="grey" stroke-width="2" points="66.23,-121.93 62.73,-111.93 59.23,-121.93 66.23,-121.93"/>
</g>
<!-- 9 -->
<g id="node10" class="node">
<title>9</title>
<path fill="none" stroke="#afd856" stroke-width="2" d="M225.98,-108C225.98,-108 139.48,-108 139.48,-108 133.48,-108 127.48,-102 127.48,-96 127.48,-96 127.48,-84 127.48,-84 127.48,-78 133.48,-72 139.48,-72 139.48,-72 225.98,-72 225.98,-72 231.98,-72 237.98,-78 237.98,-84 237.98,-84 237.98,-96 237.98,-96 237.98,-102 231.98,-108 225.98,-108"/>
<text text-anchor="middle" x="182.73" y="-93.25" font-family="sans" font-size="10.00">assembly_kmer</text>
<text text-anchor="middle" x="182.73" y="-80.5" font-family="sans" font-size="10.00">sample: verkko_hic</text>
</g>
<!-- 1&#45;&gt;9 -->
<g id="edge11" class="edge">
<title>1&#45;&gt;9</title>
<path fill="none" stroke="grey" stroke-width="2" d="M93.32,-143.15C107.85,-134.68 125.44,-124.42 141.15,-115.25"/>
<polygon fill="grey" stroke="grey" stroke-width="2" points="142.71,-118.4 149.58,-110.34 139.18,-112.35 142.71,-118.4"/>
</g>
<!-- 2 -->
<g id="node3" class="node">
<title>2</title>
<path fill="none" stroke="#56a9d8" stroke-width="2" d="M335.23,-108C335.23,-108 268.23,-108 268.23,-108 262.23,-108 256.23,-102 256.23,-96 256.23,-96 256.23,-84 256.23,-84 256.23,-78 262.23,-72 268.23,-72 268.23,-72 335.23,-72 335.23,-72 341.23,-72 347.23,-78 347.23,-84 347.23,-84 347.23,-96 347.23,-96 347.23,-102 341.23,-108 335.23,-108"/>
<text text-anchor="middle" x="301.73" y="-93.25" font-family="sans" font-size="10.00">busco</text>
<text text-anchor="middle" x="301.73" y="-80.5" font-family="sans" font-size="10.00">sample: verkko</text>
</g>
<!-- 2&#45;&gt;0 -->
<g id="edge2" class="edge">
<title>2&#45;&gt;0</title>
<path fill="none" stroke="grey" stroke-width="2" d="M332.07,-71.15C347.29,-62.2 365.89,-51.26 382.11,-41.72"/>
<polygon fill="grey" stroke="grey" stroke-width="2" points="383.44,-45 390.29,-36.91 379.9,-38.96 383.44,-45"/>
</g>
<!-- 3 -->
<g id="node4" class="node">
<title>3</title>
<path fill="none" stroke="#56a9d8" stroke-width="2" stroke-dasharray="5,2" d="M463.98,-108C463.98,-108 377.48,-108 377.48,-108 371.48,-108 365.48,-102 365.48,-96 365.48,-96 365.48,-84 365.48,-84 365.48,-78 371.48,-72 377.48,-72 377.48,-72 463.98,-72 463.98,-72 469.98,-72 475.98,-78 475.98,-84 475.98,-84 475.98,-96 475.98,-96 475.98,-102 469.98,-108 463.98,-108"/>
<text text-anchor="middle" x="420.73" y="-93.25" font-family="sans" font-size="10.00">busco</text>
<text text-anchor="middle" x="420.73" y="-80.5" font-family="sans" font-size="10.00">sample: verkko_hic</text>
</g>
<!-- 3&#45;&gt;0 -->
<g id="edge3" class="edge">
<title>3&#45;&gt;0</title>
<path fill="none" stroke="grey" stroke-width="2" d="M420.73,-71.34C420.73,-64.75 420.73,-57.08 420.73,-49.67"/>
<polygon fill="grey" stroke="grey" stroke-width="2" points="424.23,-49.93 420.73,-39.93 417.23,-49.93 424.23,-49.93"/>
</g>
<!-- 4 -->
<g id="node5" class="node">
<title>4</title>
<path fill="none" stroke="#d85656" stroke-width="2" d="M573.23,-108C573.23,-108 506.23,-108 506.23,-108 500.23,-108 494.23,-102 494.23,-96 494.23,-96 494.23,-84 494.23,-84 494.23,-78 500.23,-72 506.23,-72 506.23,-72 573.23,-72 573.23,-72 579.23,-72 585.23,-78 585.23,-84 585.23,-84 585.23,-96 585.23,-96 585.23,-102 579.23,-108 573.23,-108"/>
<text text-anchor="middle" x="539.73" y="-93.25" font-family="sans" font-size="10.00">inspector</text>
<text text-anchor="middle" x="539.73" y="-80.5" font-family="sans" font-size="10.00">sample: verkko</text>
</g>
<!-- 4&#45;&gt;0 -->
<g id="edge4" class="edge">
<title>4&#45;&gt;0</title>
<path fill="none" stroke="grey" stroke-width="2" d="M509.4,-71.15C494.18,-62.2 475.58,-51.26 459.35,-41.72"/>
<polygon fill="grey" stroke="grey" stroke-width="2" points="461.57,-38.96 451.18,-36.91 458.02,-45 461.57,-38.96"/>
</g>
<!-- 5 -->
<g id="node6" class="node">
<title>5</title>
<path fill="none" stroke="#d85656" stroke-width="2" stroke-dasharray="5,2" d="M701.98,-108C701.98,-108 615.48,-108 615.48,-108 609.48,-108 603.48,-102 603.48,-96 603.48,-96 603.48,-84 603.48,-84 603.48,-78 609.48,-72 615.48,-72 615.48,-72 701.98,-72 701.98,-72 707.98,-72 713.98,-78 713.98,-84 713.98,-84 713.98,-96 713.98,-96 713.98,-102 707.98,-108 701.98,-108"/>
<text text-anchor="middle" x="658.73" y="-93.25" font-family="sans" font-size="10.00">inspector</text>
<text text-anchor="middle" x="658.73" y="-80.5" font-family="sans" font-size="10.00">sample: verkko_hic</text>
</g>
<!-- 5&#45;&gt;0 -->
<g id="edge5" class="edge">
<title>5&#45;&gt;0</title>
<path fill="none" stroke="grey" stroke-width="2" d="M602.63,-72.5C559.05,-59.68 499.66,-42.21 460.78,-30.78"/>
<polygon fill="grey" stroke="grey" stroke-width="2" points="461.91,-27.46 451.33,-28 459.94,-34.18 461.91,-27.46"/>
</g>
<!-- 6 -->
<g id="node7" class="node">
<title>6</title>
<path fill="none" stroke="#d8ac56" stroke-width="2" d="M849.73,-108C849.73,-108 743.73,-108 743.73,-108 737.73,-108 731.73,-102 731.73,-96 731.73,-96 731.73,-84 731.73,-84 731.73,-78 737.73,-72 743.73,-72 743.73,-72 849.73,-72 849.73,-72 855.73,-72 861.73,-78 861.73,-84 861.73,-84 861.73,-96 861.73,-96 861.73,-102 855.73,-108 849.73,-108"/>
<text text-anchor="middle" x="796.73" y="-93.25" font-family="sans" font-size="10.00">contaminant_screening</text>
<text text-anchor="middle" x="796.73" y="-80.5" font-family="sans" font-size="10.00">sample: verkko</text>
</g>
<!-- 6&#45;&gt;0 -->
<g id="edge6" class="edge">
<title>6&#45;&gt;0</title>
<path fill="none" stroke="grey" stroke-width="2" d="M731,-73.71C728.21,-73.12 725.45,-72.55 722.73,-72 629.56,-53.13 519.41,-34.8 461.32,-25.43"/>
<polygon fill="grey" stroke="grey" stroke-width="2" points="462.14,-22.02 451.71,-23.89 461.03,-28.93 462.14,-22.02"/>
</g>
<!-- 7 -->
<g id="node8" class="node">
<title>7</title>
<path fill="none" stroke="#d8ac56" stroke-width="2" d="M997.73,-108C997.73,-108 891.73,-108 891.73,-108 885.73,-108 879.73,-102 879.73,-96 879.73,-96 879.73,-84 879.73,-84 879.73,-78 885.73,-72 891.73,-72 891.73,-72 997.73,-72 997.73,-72 1003.73,-72 1009.73,-78 1009.73,-84 1009.73,-84 1009.73,-96 1009.73,-96 1009.73,-102 1003.73,-108 997.73,-108"/>
<text text-anchor="middle" x="944.73" y="-93.25" font-family="sans" font-size="10.00">contaminant_screening</text>
<text text-anchor="middle" x="944.73" y="-80.5" font-family="sans" font-size="10.00">sample: verkko_hic</text>
</g>
<!-- 7&#45;&gt;0 -->
<g id="edge7" class="edge">
<title>7&#45;&gt;0</title>
<path fill="none" stroke="grey" stroke-width="2" d="M879.04,-73.52C876.24,-72.98 873.46,-72.47 870.73,-72 720.71,-46.01 540.3,-29.02 461.22,-22.28"/>
<polygon fill="grey" stroke="grey" stroke-width="2" points="461.81,-18.82 451.55,-21.47 461.22,-25.8 461.81,-18.82"/>
</g>
<!-- 8&#45;&gt;0 -->
<g id="edge8" class="edge">
<title>8&#45;&gt;0</title>
<path fill="none" stroke="grey" stroke-width="2" d="M110.59,-74.06C113.34,-73.33 116.06,-72.64 118.73,-72 211.44,-49.88 322.2,-32.77 380.41,-24.49"/>
<polygon fill="grey" stroke="grey" stroke-width="2" points="380.61,-28 390.02,-23.14 379.63,-21.07 380.61,-28"/>
</g>
<!-- 9&#45;&gt;0 -->
<g id="edge9" class="edge">
<title>9&#45;&gt;0</title>
<path fill="none" stroke="grey" stroke-width="2" d="M238.83,-72.5C282.42,-59.68 341.8,-42.21 380.69,-30.78"/>
<polygon fill="grey" stroke="grey" stroke-width="2" points="381.53,-34.18 390.13,-28 379.55,-27.46 381.53,-34.18"/>
</g>
</g>
</svg>
