<?xml version="1.0" encoding="UTF-8" standalone="no"?>
<!DOCTYPE svg PUBLIC "-//W3C//DTD SVG 1.1//EN"
 "http://www.w3.org/Graphics/SVG/1.1/DTD/svg11.dtd">
<!-- Generated by graphviz version 12.2.1 (20241206.2353)
 -->
<!-- Title: snakemake_dag Pages: 1 -->
<svg width="1623pt" height="482pt"
 viewBox="0.00 0.00 1623.00 481.75" xmlns="http://www.w3.org/2000/svg" xmlns:xlink="http://www.w3.org/1999/xlink">
<g id="graph0" class="graph" transform="scale(1 1) rotate(0) translate(4 477.75)">
<title>snakemake_dag</title>
<polygon fill="white" stroke="none" points="-4,4 -4,-477.75 1619,-477.75 1619,4 -4,4"/>
<!-- 0 -->
<g id="node1" class="node">
<title>0</title>
<path fill="none" stroke="#d85656" stroke-width="2" d="M682,-36C682,-36 652,-36 652,-36 646,-36 640,-30 640,-24 640,-24 640,-12 640,-12 640,-6 646,0 652,0 652,0 682,0 682,0 688,0 694,-6 694,-12 694,-12 694,-24 694,-24 694,-30 688,-36 682,-36"/>
<text text-anchor="middle" x="667" y="-14.12" font-family="sans" font-size="10.00">all</text>
</g>
<!-- 1 -->
<g id="node2" class="node">
<title>1</title>
<path fill="none" stroke="#59d856" stroke-width="2" d="M496.38,-398.88C496.38,-398.88 455.62,-398.88 455.62,-398.88 449.62,-398.88 443.62,-392.88 443.62,-386.88 443.62,-386.88 443.62,-374.88 443.62,-374.88 443.62,-368.88 449.62,-362.88 455.62,-362.88 455.62,-362.88 496.38,-362.88 496.38,-362.88 502.38,-362.88 508.38,-368.88 508.38,-374.88 508.38,-374.88 508.38,-386.88 508.38,-386.88 508.38,-392.88 502.38,-398.88 496.38,-398.88"/>
<text text-anchor="middle" x="476" y="-377" font-family="sans" font-size="10.00">fasta2fastq</text>
</g>
<!-- 1&#45;&gt;0 -->
<g id="edge1" class="edge">
<title>1&#45;&gt;0</title>
<path fill="none" stroke="grey" stroke-width="2" d="M472.07,-362.34C466.02,-331.46 457.07,-265.94 477,-216 507.24,-140.21 582.41,-77.45 628.62,-44.35"/>
<polygon fill="grey" stroke="grey" stroke-width="2" points="630.49,-47.31 636.66,-38.7 626.47,-41.58 630.49,-47.31"/>
</g>
<!-- 2 -->
<g id="node3" class="node">
<title>2</title>
<path fill="none" stroke="#56d8a9" stroke-width="2" d="M382.88,-324C382.88,-324 351.12,-324 351.12,-324 345.12,-324 339.12,-318 339.12,-312 339.12,-312 339.12,-300 339.12,-300 339.12,-294 345.12,-288 351.12,-288 351.12,-288 382.88,-288 382.88,-288 388.88,-288 394.88,-294 394.88,-300 394.88,-300 394.88,-312 394.88,-312 394.88,-318 388.88,-324 382.88,-324"/>
<text text-anchor="middle" x="367" y="-302.12" font-family="sans" font-size="10.00">inspector</text>
</g>
<!-- 1&#45;&gt;2 -->
<g id="edge23" class="edge">
<title>1&#45;&gt;2</title>
<path fill="none" stroke="grey" stroke-width="2" d="M449.34,-362.05C435.88,-353.05 419.32,-341.98 404.59,-332.13"/>
<polygon fill="grey" stroke="grey" stroke-width="2" points="406.54,-329.23 396.28,-326.58 402.65,-335.05 406.54,-329.23"/>
</g>
<!-- 5 -->
<g id="node6" class="node">
<title>5</title>
<path fill="none" stroke="#56d8a9" stroke-width="2" d="M1308.88,-324C1308.88,-324 1277.12,-324 1277.12,-324 1271.12,-324 1265.12,-318 1265.12,-312 1265.12,-312 1265.12,-300 1265.12,-300 1265.12,-294 1271.12,-288 1277.12,-288 1277.12,-288 1308.88,-288 1308.88,-288 1314.88,-288 1320.88,-294 1320.88,-300 1320.88,-300 1320.88,-312 1320.88,-312 1320.88,-318 1314.88,-324 1308.88,-324"/>
<text text-anchor="middle" x="1293" y="-302.12" font-family="sans" font-size="10.00">inspector</text>
</g>
<!-- 1&#45;&gt;5 -->
<g id="edge26" class="edge">
<title>1&#45;&gt;5</title>
<path fill="none" stroke="grey" stroke-width="2" d="M509.29,-376.91C638.8,-365.35 1108.83,-323.43 1251.6,-310.69"/>
<polygon fill="grey" stroke="grey" stroke-width="2" points="1251.7,-314.2 1261.35,-309.82 1251.08,-307.23 1251.7,-314.2"/>
</g>
<!-- 7 -->
<g id="node8" class="node">
<title>7</title>
<path fill="none" stroke="#56d8a9" stroke-width="2" d="M261.88,-324C261.88,-324 230.12,-324 230.12,-324 224.12,-324 218.12,-318 218.12,-312 218.12,-312 218.12,-300 218.12,-300 218.12,-294 224.12,-288 230.12,-288 230.12,-288 261.88,-288 261.88,-288 267.88,-288 273.88,-294 273.88,-300 273.88,-300 273.88,-312 273.88,-312 273.88,-318 267.88,-324 261.88,-324"/>
<text text-anchor="middle" x="246" y="-302.12" font-family="sans" font-size="10.00">inspector</text>
</g>
<!-- 1&#45;&gt;7 -->
<g id="edge29" class="edge">
<title>1&#45;&gt;7</title>
<path fill="none" stroke="grey" stroke-width="2" d="M442.65,-363.11C440.08,-362 437.51,-360.95 435,-360 385.29,-341.15 325.99,-325.6 287.24,-316.32"/>
<polygon fill="grey" stroke="grey" stroke-width="2" points="288.17,-312.94 277.63,-314.05 286.56,-319.75 288.17,-312.94"/>
</g>
<!-- 10 -->
<g id="node11" class="node">
<title>10</title>
<path fill="none" stroke="#5682d8" stroke-width="2" d="M962.88,-324C962.88,-324 925.12,-324 925.12,-324 919.12,-324 913.12,-318 913.12,-312 913.12,-312 913.12,-300 913.12,-300 913.12,-294 919.12,-288 925.12,-288 925.12,-288 962.88,-288 962.88,-288 968.88,-288 974.88,-294 974.88,-300 974.88,-300 974.88,-312 974.88,-312 974.88,-318 968.88,-324 962.88,-324"/>
<text text-anchor="middle" x="944" y="-302.12" font-family="sans" font-size="10.00">read_kmer</text>
</g>
<!-- 1&#45;&gt;10 -->
<g id="edge32" class="edge">
<title>1&#45;&gt;10</title>
<path fill="none" stroke="grey" stroke-width="2" d="M509.28,-374.69C591.87,-361.83 806.23,-328.45 899.53,-313.92"/>
<polygon fill="grey" stroke="grey" stroke-width="2" points="899.79,-317.43 909.14,-312.43 898.72,-310.51 899.79,-317.43"/>
</g>
<!-- 2&#45;&gt;0 -->
<g id="edge2" class="edge">
<title>2&#45;&gt;0</title>
<path fill="none" stroke="grey" stroke-width="2" d="M338.34,-300.54C311.12,-294.62 271.66,-281.26 253,-252 228.33,-213.33 318.3,-99.62 364,-72 407.58,-45.66 554.38,-29.15 626.43,-22.44"/>
<polygon fill="grey" stroke="grey" stroke-width="2" points="626.72,-25.93 636.37,-21.54 626.09,-18.96 626.72,-25.93"/>
</g>
<!-- 16 -->
<g id="node17" class="node">
<title>16</title>
<path fill="none" stroke="#56d8d8" stroke-width="2" d="M341.5,-252C341.5,-252 274.5,-252 274.5,-252 268.5,-252 262.5,-246 262.5,-240 262.5,-240 262.5,-228 262.5,-228 262.5,-222 268.5,-216 274.5,-216 274.5,-216 341.5,-216 341.5,-216 347.5,-216 353.5,-222 353.5,-228 353.5,-228 353.5,-240 353.5,-240 353.5,-246 347.5,-252 341.5,-252"/>
<text text-anchor="middle" x="308" y="-230.12" font-family="sans" font-size="10.00">inspector_correct</text>
</g>
<!-- 2&#45;&gt;16 -->
<g id="edge35" class="edge">
<title>2&#45;&gt;16</title>
<path fill="none" stroke="grey" stroke-width="2" d="M352.11,-287.34C345.8,-279.85 338.3,-270.95 331.29,-262.63"/>
<polygon fill="grey" stroke="grey" stroke-width="2" points="334.16,-260.61 325.04,-255.22 328.81,-265.12 334.16,-260.61"/>
</g>
<!-- 22 -->
<g id="node23" class="node">
<title>22</title>
<path fill="none" stroke="#afd856" stroke-width="2" d="M824,-108C824,-108 794,-108 794,-108 788,-108 782,-102 782,-96 782,-96 782,-84 782,-84 782,-78 788,-72 794,-72 794,-72 824,-72 824,-72 830,-72 836,-78 836,-84 836,-84 836,-96 836,-96 836,-102 830,-108 824,-108"/>
<text text-anchor="middle" x="809" y="-86.12" font-family="sans" font-size="10.00">cleanup</text>
</g>
<!-- 2&#45;&gt;22 -->
<g id="edge47" class="edge">
<title>2&#45;&gt;22</title>
<path fill="none" stroke="grey" stroke-width="2" d="M385.09,-287.22C405.83,-267.61 441.57,-236.18 477,-216 516.96,-193.24 532.03,-198.8 574,-180 605.21,-166.02 610.46,-157.23 642,-144 684.28,-126.27 734.68,-111.04 768.96,-101.52"/>
<polygon fill="grey" stroke="grey" stroke-width="2" points="769.62,-104.97 778.35,-98.95 767.78,-98.21 769.62,-104.97"/>
</g>
<!-- 23 -->
<g id="node24" class="node">
<title>23</title>
<path fill="none" stroke="#d88556" stroke-width="2" d="M934.62,-180C934.62,-180 877.38,-180 877.38,-180 871.38,-180 865.38,-174 865.38,-168 865.38,-168 865.38,-156 865.38,-156 865.38,-150 871.38,-144 877.38,-144 877.38,-144 934.62,-144 934.62,-144 940.62,-144 946.62,-150 946.62,-156 946.62,-156 946.62,-168 946.62,-168 946.62,-174 940.62,-180 934.62,-180"/>
<text text-anchor="middle" x="906" y="-158.12" font-family="sans" font-size="10.00">assembly_eval</text>
</g>
<!-- 2&#45;&gt;23 -->
<g id="edge60" class="edge">
<title>2&#45;&gt;23</title>
<path fill="none" stroke="grey" stroke-width="2" d="M395.72,-304.46C504.17,-302.11 884.45,-291.12 920,-252 934.41,-236.14 929.39,-211.77 921.61,-192.54"/>
<polygon fill="grey" stroke="grey" stroke-width="2" points="924.84,-191.2 917.52,-183.54 918.47,-194.09 924.84,-191.2"/>
</g>
<!-- 3 -->
<g id="node4" class="node">
<title>3</title>
<path fill="none" stroke="#56d882" stroke-width="2" d="M413.5,-401.75C413.5,-401.75 286.5,-401.75 286.5,-401.75 280.5,-401.75 274.5,-395.75 274.5,-389.75 274.5,-389.75 274.5,-372 274.5,-372 274.5,-366 280.5,-360 286.5,-360 286.5,-360 413.5,-360 413.5,-360 419.5,-360 425.5,-366 425.5,-372 425.5,-372 425.5,-389.75 425.5,-389.75 425.5,-395.75 419.5,-401.75 413.5,-401.75"/>
<text text-anchor="middle" x="350" y="-388.25" font-family="sans" font-size="10.00">filter_contaminated_sequences</text>
<text text-anchor="middle" x="350" y="-377" font-family="sans" font-size="10.00">assemblies: assembly2</text>
<text text-anchor="middle" x="350" y="-365.75" font-family="sans" font-size="10.00">sassemblies: assembly2</text>
</g>
<!-- 3&#45;&gt;0 -->
<g id="edge11" class="edge">
<title>3&#45;&gt;0</title>
<path fill="none" stroke="grey" stroke-width="2" d="M273.68,-360.58C181.31,-334.94 38,-286.81 38,-235 38,-235 38,-235 38,-161 38,-109.56 66.52,-96.04 112,-72 201.24,-24.84 513.41,-19.34 626.07,-18.93"/>
<polygon fill="grey" stroke="grey" stroke-width="2" points="626.07,-22.43 636.06,-18.91 626.06,-15.43 626.07,-22.43"/>
</g>
<!-- 3&#45;&gt;2 -->
<g id="edge22" class="edge">
<title>3&#45;&gt;2</title>
<path fill="none" stroke="grey" stroke-width="2" d="M354.83,-359.19C356.42,-352.35 358.23,-344.59 359.96,-337.19"/>
<polygon fill="grey" stroke="grey" stroke-width="2" points="363.36,-338.01 362.22,-327.48 356.54,-336.42 363.36,-338.01"/>
</g>
<!-- 4 -->
<g id="node5" class="node">
<title>4</title>
<path fill="none" stroke="#80d856" stroke-width="2" d="M396.25,-473.75C396.25,-473.75 303.75,-473.75 303.75,-473.75 297.75,-473.75 291.75,-467.75 291.75,-461.75 291.75,-461.75 291.75,-449.75 291.75,-449.75 291.75,-443.75 297.75,-437.75 303.75,-437.75 303.75,-437.75 396.25,-437.75 396.25,-437.75 402.25,-437.75 408.25,-443.75 408.25,-449.75 408.25,-449.75 408.25,-461.75 408.25,-461.75 408.25,-467.75 402.25,-473.75 396.25,-473.75"/>
<text text-anchor="middle" x="350" y="-451.88" font-family="sans" font-size="10.00">contaminant_screening</text>
</g>
<!-- 4&#45;&gt;3 -->
<g id="edge24" class="edge">
<title>4&#45;&gt;3</title>
<path fill="none" stroke="grey" stroke-width="2" d="M350,-437.11C350,-430.63 350,-423.06 350,-415.65"/>
<polygon fill="grey" stroke="grey" stroke-width="2" points="353.5,-415.75 350,-405.75 346.5,-415.75 353.5,-415.75"/>
</g>
<!-- 6 -->
<g id="node7" class="node">
<title>6</title>
<path fill="none" stroke="#56d882" stroke-width="2" d="M1356.5,-401.75C1356.5,-401.75 1229.5,-401.75 1229.5,-401.75 1223.5,-401.75 1217.5,-395.75 1217.5,-389.75 1217.5,-389.75 1217.5,-372 1217.5,-372 1217.5,-366 1223.5,-360 1229.5,-360 1229.5,-360 1356.5,-360 1356.5,-360 1362.5,-360 1368.5,-366 1368.5,-372 1368.5,-372 1368.5,-389.75 1368.5,-389.75 1368.5,-395.75 1362.5,-401.75 1356.5,-401.75"/>
<text text-anchor="middle" x="1293" y="-388.25" font-family="sans" font-size="10.00">filter_contaminated_sequences</text>
<text text-anchor="middle" x="1293" y="-377" font-family="sans" font-size="10.00">assemblies: assembly3</text>
<text text-anchor="middle" x="1293" y="-365.75" font-family="sans" font-size="10.00">sassemblies: assembly3</text>
</g>
<!-- 4&#45;&gt;6 -->
<g id="edge27" class="edge">
<title>4&#45;&gt;6</title>
<path fill="none" stroke="grey" stroke-width="2" d="M408.99,-450.19C569.21,-437.81 1013.22,-403.5 1204,-388.75"/>
<polygon fill="grey" stroke="grey" stroke-width="2" points="1204.03,-392.26 1213.73,-388 1203.49,-385.28 1204.03,-392.26"/>
</g>
<!-- 8 -->
<g id="node9" class="node">
<title>8</title>
<path fill="none" stroke="#56d882" stroke-width="2" d="M244.5,-401.75C244.5,-401.75 117.5,-401.75 117.5,-401.75 111.5,-401.75 105.5,-395.75 105.5,-389.75 105.5,-389.75 105.5,-372 105.5,-372 105.5,-366 111.5,-360 117.5,-360 117.5,-360 244.5,-360 244.5,-360 250.5,-360 256.5,-366 256.5,-372 256.5,-372 256.5,-389.75 256.5,-389.75 256.5,-395.75 250.5,-401.75 244.5,-401.75"/>
<text text-anchor="middle" x="181" y="-388.25" font-family="sans" font-size="10.00">filter_contaminated_sequences</text>
<text text-anchor="middle" x="181" y="-377" font-family="sans" font-size="10.00">assemblies: assembly1</text>
<text text-anchor="middle" x="181" y="-365.75" font-family="sans" font-size="10.00">sassemblies: assembly1</text>
</g>
<!-- 4&#45;&gt;8 -->
<g id="edge30" class="edge">
<title>4&#45;&gt;8</title>
<path fill="none" stroke="grey" stroke-width="2" d="M308.66,-436.92C288.36,-428.17 263.53,-417.46 241.18,-407.82"/>
<polygon fill="grey" stroke="grey" stroke-width="2" points="242.76,-404.69 232.19,-403.95 239.98,-411.12 242.76,-404.69"/>
</g>
<!-- 5&#45;&gt;0 -->
<g id="edge3" class="edge">
<title>5&#45;&gt;0</title>
<path fill="none" stroke="grey" stroke-width="2" d="M1321.69,-303.68C1383.97,-300.16 1528.33,-288.19 1558,-252 1568.14,-239.63 1565.26,-230.26 1558,-216 1508.62,-119.04 1462.12,-109.57 1360,-72 1239.01,-27.48 837.15,-20.36 707.62,-19.22"/>
<polygon fill="grey" stroke="grey" stroke-width="2" points="707.97,-15.72 697.94,-19.14 707.92,-22.72 707.97,-15.72"/>
</g>
<!-- 17 -->
<g id="node18" class="node">
<title>17</title>
<path fill="none" stroke="#56d8d8" stroke-width="2" d="M1536.5,-252C1536.5,-252 1469.5,-252 1469.5,-252 1463.5,-252 1457.5,-246 1457.5,-240 1457.5,-240 1457.5,-228 1457.5,-228 1457.5,-222 1463.5,-216 1469.5,-216 1469.5,-216 1536.5,-216 1536.5,-216 1542.5,-216 1548.5,-222 1548.5,-228 1548.5,-228 1548.5,-240 1548.5,-240 1548.5,-246 1542.5,-252 1536.5,-252"/>
<text text-anchor="middle" x="1503" y="-230.12" font-family="sans" font-size="10.00">inspector_correct</text>
</g>
<!-- 5&#45;&gt;17 -->
<g id="edge36" class="edge">
<title>5&#45;&gt;17</title>
<path fill="none" stroke="grey" stroke-width="2" d="M1321.76,-295.41C1353.25,-284.92 1404.59,-267.8 1444.6,-254.47"/>
<polygon fill="grey" stroke="grey" stroke-width="2" points="1445.64,-257.81 1454.02,-251.33 1443.42,-251.17 1445.64,-257.81"/>
</g>
<!-- 5&#45;&gt;22 -->
<g id="edge48" class="edge">
<title>5&#45;&gt;22</title>
<path fill="none" stroke="grey" stroke-width="2" d="M1294.11,-287.31C1294.37,-267.5 1291.67,-235.6 1274,-216 1271.83,-213.59 1055.13,-144.85 1052,-144 981.52,-124.93 898.12,-107.93 849.63,-98.58"/>
<polygon fill="grey" stroke="grey" stroke-width="2" points="850.37,-95.16 839.89,-96.72 849.05,-102.04 850.37,-95.16"/>
</g>
<!-- 5&#45;&gt;23 -->
<g id="edge61" class="edge">
<title>5&#45;&gt;23</title>
<path fill="none" stroke="grey" stroke-width="2" d="M1264.37,-305.06C1210.06,-304.08 1089.6,-296.58 1001,-252 992.94,-247.95 958.01,-214.35 932.84,-189.63"/>
<polygon fill="grey" stroke="grey" stroke-width="2" points="935.48,-187.32 925.9,-182.79 930.57,-192.3 935.48,-187.32"/>
</g>
<!-- 6&#45;&gt;0 -->
<g id="edge12" class="edge">
<title>6&#45;&gt;0</title>
<path fill="none" stroke="grey" stroke-width="2" d="M1369.31,-377.76C1464.53,-370.59 1615,-342.28 1615,-235 1615,-235 1615,-235 1615,-161 1615,-65.73 1512.32,-95.5 1420,-72 1283.25,-37.19 843.7,-23.44 707.58,-19.95"/>
<polygon fill="grey" stroke="grey" stroke-width="2" points="707.76,-16.46 697.68,-19.7 707.59,-23.45 707.76,-16.46"/>
</g>
<!-- 6&#45;&gt;5 -->
<g id="edge25" class="edge">
<title>6&#45;&gt;5</title>
<path fill="none" stroke="grey" stroke-width="2" d="M1293,-359.19C1293,-352.43 1293,-344.79 1293,-337.47"/>
<polygon fill="grey" stroke="grey" stroke-width="2" points="1296.5,-337.56 1293,-327.56 1289.5,-337.56 1296.5,-337.56"/>
</g>
<!-- 7&#45;&gt;0 -->
<g id="edge4" class="edge">
<title>7&#45;&gt;0</title>
<path fill="none" stroke="grey" stroke-width="2" d="M217.23,-303.42C183.87,-299.86 130.23,-288.44 105,-252 57.8,-183.83 87.77,-121.87 154,-72 191.46,-43.79 511.12,-26.26 626.05,-20.82"/>
<polygon fill="grey" stroke="grey" stroke-width="2" points="626.17,-24.32 636,-20.36 625.85,-17.33 626.17,-24.32"/>
</g>
<!-- 18 -->
<g id="node19" class="node">
<title>18</title>
<path fill="none" stroke="#56d8d8" stroke-width="2" d="M193.5,-252C193.5,-252 126.5,-252 126.5,-252 120.5,-252 114.5,-246 114.5,-240 114.5,-240 114.5,-228 114.5,-228 114.5,-222 120.5,-216 126.5,-216 126.5,-216 193.5,-216 193.5,-216 199.5,-216 205.5,-222 205.5,-228 205.5,-228 205.5,-240 205.5,-240 205.5,-246 199.5,-252 193.5,-252"/>
<text text-anchor="middle" x="160" y="-230.12" font-family="sans" font-size="10.00">inspector_correct</text>
</g>
<!-- 7&#45;&gt;18 -->
<g id="edge37" class="edge">
<title>7&#45;&gt;18</title>
<path fill="none" stroke="grey" stroke-width="2" d="M224.3,-287.34C214.49,-279.36 202.71,-269.77 191.93,-260.99"/>
<polygon fill="grey" stroke="grey" stroke-width="2" points="194.31,-258.41 184.34,-254.81 189.89,-263.84 194.31,-258.41"/>
</g>
<!-- 7&#45;&gt;22 -->
<g id="edge49" class="edge">
<title>7&#45;&gt;22</title>
<path fill="none" stroke="grey" stroke-width="2" d="M274.81,-293.05C298.77,-282.85 333.57,-267.43 363,-252 390.54,-237.56 395.6,-230.71 423,-216 488.51,-180.83 503.74,-168.33 574,-144 640.51,-120.97 721.12,-105.31 768.56,-97.29"/>
<polygon fill="grey" stroke="grey" stroke-width="2" points="769.03,-100.76 778.32,-95.68 767.89,-93.86 769.03,-100.76"/>
</g>
<!-- 7&#45;&gt;23 -->
<g id="edge62" class="edge">
<title>7&#45;&gt;23</title>
<path fill="none" stroke="grey" stroke-width="2" d="M274.61,-298.21C290.78,-294.63 311.42,-290.47 330,-288 391.48,-279.83 840.07,-292.54 887,-252 903.34,-237.89 907.65,-213.48 908.11,-193.79"/>
<polygon fill="grey" stroke="grey" stroke-width="2" points="911.61,-193.77 907.96,-183.83 904.62,-193.88 911.61,-193.77"/>
</g>
<!-- 8&#45;&gt;0 -->
<g id="edge13" class="edge">
<title>8&#45;&gt;0</title>
<path fill="none" stroke="grey" stroke-width="2" d="M118.46,-359.04C66.14,-337.21 0,-297.29 0,-235 0,-235 0,-235 0,-161 0,-115.19 13.28,-96.49 52,-72 100.44,-41.36 497.39,-24.92 626.56,-20.34"/>
<polygon fill="grey" stroke="grey" stroke-width="2" points="626.34,-23.85 636.21,-20.01 626.09,-16.86 626.34,-23.85"/>
</g>
<!-- 8&#45;&gt;7 -->
<g id="edge28" class="edge">
<title>8&#45;&gt;7</title>
<path fill="none" stroke="grey" stroke-width="2" d="M199.45,-359.19C206.39,-351.41 214.39,-342.44 221.77,-334.17"/>
<polygon fill="grey" stroke="grey" stroke-width="2" points="224.3,-336.58 228.35,-326.79 219.08,-331.92 224.3,-336.58"/>
</g>
<!-- 9 -->
<g id="node10" class="node">
<title>9</title>
<path fill="none" stroke="#d8ac56" stroke-width="2" d="M866.38,-252C866.38,-252 771.62,-252 771.62,-252 765.62,-252 759.62,-246 759.62,-240 759.62,-240 759.62,-228 759.62,-228 759.62,-222 765.62,-216 771.62,-216 771.62,-216 866.38,-216 866.38,-216 872.38,-216 878.38,-222 878.38,-228 878.38,-228 878.38,-240 878.38,-240 878.38,-246 872.38,-252 866.38,-252"/>
<text text-anchor="middle" x="819" y="-235.75" font-family="sans" font-size="10.00">assembly_kmer</text>
<text text-anchor="middle" x="819" y="-224.5" font-family="sans" font-size="10.00">assemblies: assembly2</text>
</g>
<!-- 9&#45;&gt;0 -->
<g id="edge5" class="edge">
<title>9&#45;&gt;0</title>
<path fill="none" stroke="grey" stroke-width="2" d="M806.3,-215.12C779.93,-177.99 719.02,-92.24 687.19,-47.43"/>
<polygon fill="grey" stroke="grey" stroke-width="2" points="690.17,-45.57 681.52,-39.44 684.46,-49.62 690.17,-45.57"/>
</g>
<!-- 9&#45;&gt;22 -->
<g id="edge44" class="edge">
<title>9&#45;&gt;22</title>
<path fill="none" stroke="grey" stroke-width="2" d="M817.73,-215.02C816.08,-191.54 813.16,-150.11 811.16,-121.64"/>
<polygon fill="grey" stroke="grey" stroke-width="2" points="814.66,-121.59 810.47,-111.86 807.68,-122.08 814.66,-121.59"/>
</g>
<!-- 9&#45;&gt;23 -->
<g id="edge57" class="edge">
<title>9&#45;&gt;23</title>
<path fill="none" stroke="grey" stroke-width="2" d="M840.95,-215.34C850.87,-207.36 862.79,-197.77 873.7,-188.99"/>
<polygon fill="grey" stroke="grey" stroke-width="2" points="875.8,-191.8 881.39,-182.8 871.41,-186.34 875.8,-191.8"/>
</g>
<!-- 10&#45;&gt;9 -->
<g id="edge31" class="edge">
<title>10&#45;&gt;9</title>
<path fill="none" stroke="grey" stroke-width="2" d="M912.13,-287.15C896.85,-278.6 878.33,-268.22 861.84,-258.99"/>
<polygon fill="grey" stroke="grey" stroke-width="2" points="863.88,-256.12 853.45,-254.29 860.46,-262.23 863.88,-256.12"/>
</g>
<!-- 11 -->
<g id="node12" class="node">
<title>11</title>
<path fill="none" stroke="#d8ac56" stroke-width="2" d="M1116.38,-252C1116.38,-252 1021.62,-252 1021.62,-252 1015.62,-252 1009.62,-246 1009.62,-240 1009.62,-240 1009.62,-228 1009.62,-228 1009.62,-222 1015.62,-216 1021.62,-216 1021.62,-216 1116.38,-216 1116.38,-216 1122.38,-216 1128.38,-222 1128.38,-228 1128.38,-228 1128.38,-240 1128.38,-240 1128.38,-246 1122.38,-252 1116.38,-252"/>
<text text-anchor="middle" x="1069" y="-235.75" font-family="sans" font-size="10.00">assembly_kmer</text>
<text text-anchor="middle" x="1069" y="-224.5" font-family="sans" font-size="10.00">assemblies: assembly3</text>
</g>
<!-- 10&#45;&gt;11 -->
<g id="edge33" class="edge">
<title>10&#45;&gt;11</title>
<path fill="none" stroke="grey" stroke-width="2" d="M975.87,-287.15C991.15,-278.6 1009.67,-268.22 1026.16,-258.99"/>
<polygon fill="grey" stroke="grey" stroke-width="2" points="1027.54,-262.23 1034.55,-254.29 1024.12,-256.12 1027.54,-262.23"/>
</g>
<!-- 12 -->
<g id="node13" class="node">
<title>12</title>
<path fill="none" stroke="#d8ac56" stroke-width="2" d="M1253.38,-252C1253.38,-252 1158.62,-252 1158.62,-252 1152.62,-252 1146.62,-246 1146.62,-240 1146.62,-240 1146.62,-228 1146.62,-228 1146.62,-222 1152.62,-216 1158.62,-216 1158.62,-216 1253.38,-216 1253.38,-216 1259.38,-216 1265.38,-222 1265.38,-228 1265.38,-228 1265.38,-240 1265.38,-240 1265.38,-246 1259.38,-252 1253.38,-252"/>
<text text-anchor="middle" x="1206" y="-235.75" font-family="sans" font-size="10.00">assembly_kmer</text>
<text text-anchor="middle" x="1206" y="-224.5" font-family="sans" font-size="10.00">assemblies: assembly1</text>
</g>
<!-- 10&#45;&gt;12 -->
<g id="edge34" class="edge">
<title>10&#45;&gt;12</title>
<path fill="none" stroke="grey" stroke-width="2" d="M975.86,-296.49C1014.73,-286.1 1081.64,-268.23 1133.32,-254.42"/>
<polygon fill="grey" stroke="grey" stroke-width="2" points="1134.09,-257.84 1142.85,-251.87 1132.28,-251.07 1134.09,-257.84"/>
</g>
<!-- 11&#45;&gt;0 -->
<g id="edge6" class="edge">
<title>11&#45;&gt;0</title>
<path fill="none" stroke="grey" stroke-width="2" d="M1056.66,-215.12C1042.88,-196 1019.19,-165.53 994,-144 947.01,-103.83 932.01,-95.89 875,-72 819.06,-48.56 750.16,-33.5 707.4,-25.64"/>
<polygon fill="grey" stroke="grey" stroke-width="2" points="708.19,-22.23 697.73,-23.92 706.96,-29.12 708.19,-22.23"/>
</g>
<!-- 11&#45;&gt;22 -->
<g id="edge45" class="edge">
<title>11&#45;&gt;22</title>
<path fill="none" stroke="grey" stroke-width="2" d="M1047.96,-215.09C1020.9,-192.3 975.11,-154.6 956,-144 921.86,-125.05 879.64,-110.66 849.22,-101.68"/>
<polygon fill="grey" stroke="grey" stroke-width="2" points="850.45,-98.4 839.87,-99.01 848.52,-105.13 850.45,-98.4"/>
</g>
<!-- 11&#45;&gt;23 -->
<g id="edge58" class="edge">
<title>11&#45;&gt;23</title>
<path fill="none" stroke="grey" stroke-width="2" d="M1027.45,-215.15C1006.75,-206.27 981.5,-195.42 959.39,-185.93"/>
<polygon fill="grey" stroke="grey" stroke-width="2" points="960.83,-182.74 950.26,-182.01 958.07,-189.17 960.83,-182.74"/>
</g>
<!-- 12&#45;&gt;0 -->
<g id="edge7" class="edge">
<title>12&#45;&gt;0</title>
<path fill="none" stroke="grey" stroke-width="2" d="M1181.03,-215C1133.55,-181.65 1025.98,-110.18 925,-72 851.18,-44.09 759.64,-29.73 707.82,-23.33"/>
<polygon fill="grey" stroke="grey" stroke-width="2" points="708.27,-19.85 697.93,-22.15 707.44,-26.81 708.27,-19.85"/>
</g>
<!-- 12&#45;&gt;22 -->
<g id="edge46" class="edge">
<title>12&#45;&gt;22</title>
<path fill="none" stroke="grey" stroke-width="2" d="M1167.08,-215.02C1124.97,-195.95 1055.57,-165.66 994,-144 944.94,-126.74 887.15,-110.88 849.38,-101.09"/>
<polygon fill="grey" stroke="grey" stroke-width="2" points="850.39,-97.74 839.84,-98.64 848.65,-104.52 850.39,-97.74"/>
</g>
<!-- 12&#45;&gt;23 -->
<g id="edge59" class="edge">
<title>12&#45;&gt;23</title>
<path fill="none" stroke="grey" stroke-width="2" d="M1145.8,-218.11C1142.83,-217.39 1139.88,-216.69 1137,-216 1076.45,-201.59 1006.79,-185.71 959.94,-175.12"/>
<polygon fill="grey" stroke="grey" stroke-width="2" points="960.84,-171.73 950.31,-172.95 959.29,-178.56 960.84,-171.73"/>
</g>
<!-- 13 -->
<g id="node14" class="node">
<title>13</title>
<path fill="none" stroke="#d6d856" stroke-width="2" d="M1427.38,-252C1427.38,-252 1332.62,-252 1332.62,-252 1326.62,-252 1320.62,-246 1320.62,-240 1320.62,-240 1320.62,-228 1320.62,-228 1320.62,-222 1326.62,-216 1332.62,-216 1332.62,-216 1427.38,-216 1427.38,-216 1433.38,-216 1439.38,-222 1439.38,-228 1439.38,-228 1439.38,-240 1439.38,-240 1439.38,-246 1433.38,-252 1427.38,-252"/>
<text text-anchor="middle" x="1380" y="-235.75" font-family="sans" font-size="10.00">busco</text>
<text text-anchor="middle" x="1380" y="-224.5" font-family="sans" font-size="10.00">assemblies: assembly2</text>
</g>
<!-- 13&#45;&gt;0 -->
<g id="edge8" class="edge">
<title>13&#45;&gt;0</title>
<path fill="none" stroke="grey" stroke-width="2" d="M1342.86,-215.07C1272.89,-182 1116.05,-111.19 977,-72 882.22,-45.29 767.12,-29.91 707.37,-23.15"/>
<polygon fill="grey" stroke="grey" stroke-width="2" points="708.13,-19.71 697.81,-22.1 707.37,-26.67 708.13,-19.71"/>
</g>
<!-- 13&#45;&gt;22 -->
<g id="edge50" class="edge">
<title>13&#45;&gt;22</title>
<path fill="none" stroke="grey" stroke-width="2" d="M1337.08,-215.1C1312.47,-204.84 1281,-191.7 1253,-180 1214.77,-164.02 1206.92,-155.12 1167,-144 1054.6,-112.69 916.88,-98.91 849.73,-93.71"/>
<polygon fill="grey" stroke="grey" stroke-width="2" points="850.14,-90.23 839.9,-92.98 849.62,-97.21 850.14,-90.23"/>
</g>
<!-- 13&#45;&gt;23 -->
<g id="edge54" class="edge">
<title>13&#45;&gt;23</title>
<path fill="none" stroke="grey" stroke-width="2" d="M1319.77,-223.17C1304.82,-220.78 1288.83,-218.26 1274,-216 1162.56,-199.04 1031.92,-180.56 960.13,-170.52"/>
<polygon fill="grey" stroke="grey" stroke-width="2" points="960.81,-167.08 950.42,-169.16 959.84,-174.01 960.81,-167.08"/>
</g>
<!-- 14 -->
<g id="node15" class="node">
<title>14</title>
<path fill="none" stroke="#d6d856" stroke-width="2" d="M592.38,-252C592.38,-252 497.62,-252 497.62,-252 491.62,-252 485.62,-246 485.62,-240 485.62,-240 485.62,-228 485.62,-228 485.62,-222 491.62,-216 497.62,-216 497.62,-216 592.38,-216 592.38,-216 598.38,-216 604.38,-222 604.38,-228 604.38,-228 604.38,-240 604.38,-240 604.38,-246 598.38,-252 592.38,-252"/>
<text text-anchor="middle" x="545" y="-235.75" font-family="sans" font-size="10.00">busco</text>
<text text-anchor="middle" x="545" y="-224.5" font-family="sans" font-size="10.00">assemblies: assembly3</text>
</g>
<!-- 14&#45;&gt;0 -->
<g id="edge9" class="edge">
<title>14&#45;&gt;0</title>
<path fill="none" stroke="grey" stroke-width="2" d="M555.19,-215.12C576.23,-178.22 624.63,-93.32 650.3,-48.29"/>
<polygon fill="grey" stroke="grey" stroke-width="2" points="653.34,-50.03 655.25,-39.61 647.26,-46.56 653.34,-50.03"/>
</g>
<!-- 14&#45;&gt;22 -->
<g id="edge51" class="edge">
<title>14&#45;&gt;22</title>
<path fill="none" stroke="grey" stroke-width="2" d="M578.44,-215.02C627.22,-188.78 717.74,-140.09 769.66,-112.16"/>
<polygon fill="grey" stroke="grey" stroke-width="2" points="771.24,-115.29 778.39,-107.47 767.92,-109.12 771.24,-115.29"/>
</g>
<!-- 14&#45;&gt;23 -->
<g id="edge55" class="edge">
<title>14&#45;&gt;23</title>
<path fill="none" stroke="grey" stroke-width="2" d="M605.16,-217.95C608.15,-217.27 611.1,-216.62 614,-216 696.68,-198.33 793.33,-181.54 852.08,-171.76"/>
<polygon fill="grey" stroke="grey" stroke-width="2" points="852.46,-175.24 861.75,-170.15 851.31,-168.34 852.46,-175.24"/>
</g>
<!-- 15 -->
<g id="node16" class="node">
<title>15</title>
<path fill="none" stroke="#d6d856" stroke-width="2" d="M729.38,-252C729.38,-252 634.62,-252 634.62,-252 628.62,-252 622.62,-246 622.62,-240 622.62,-240 622.62,-228 622.62,-228 622.62,-222 628.62,-216 634.62,-216 634.62,-216 729.38,-216 729.38,-216 735.38,-216 741.38,-222 741.38,-228 741.38,-228 741.38,-240 741.38,-240 741.38,-246 735.38,-252 729.38,-252"/>
<text text-anchor="middle" x="682" y="-235.75" font-family="sans" font-size="10.00">busco</text>
<text text-anchor="middle" x="682" y="-224.5" font-family="sans" font-size="10.00">assemblies: assembly1</text>
</g>
<!-- 15&#45;&gt;0 -->
<g id="edge10" class="edge">
<title>15&#45;&gt;0</title>
<path fill="none" stroke="grey" stroke-width="2" d="M680.75,-215.12C678.19,-178.62 672.34,-95.13 669.15,-49.74"/>
<polygon fill="grey" stroke="grey" stroke-width="2" points="672.66,-49.73 668.47,-40 665.68,-50.22 672.66,-49.73"/>
</g>
<!-- 15&#45;&gt;22 -->
<g id="edge52" class="edge">
<title>15&#45;&gt;22</title>
<path fill="none" stroke="grey" stroke-width="2" d="M698.08,-215.02C719.94,-190.58 759.2,-146.69 784.66,-118.21"/>
<polygon fill="grey" stroke="grey" stroke-width="2" points="786.97,-120.88 791.03,-111.09 781.75,-116.22 786.97,-120.88"/>
</g>
<!-- 15&#45;&gt;23 -->
<g id="edge56" class="edge">
<title>15&#45;&gt;23</title>
<path fill="none" stroke="grey" stroke-width="2" d="M739.39,-215.06C774.26,-204.17 818.47,-190.35 852.59,-179.69"/>
<polygon fill="grey" stroke="grey" stroke-width="2" points="853.28,-183.14 861.78,-176.82 851.19,-176.46 853.28,-183.14"/>
</g>
<!-- 16&#45;&gt;0 -->
<g id="edge14" class="edge">
<title>16&#45;&gt;0</title>
<path fill="none" stroke="grey" stroke-width="2" d="M310.58,-215.21C314.03,-196.16 321.6,-165.75 337,-144 367.41,-101.05 383.33,-94.29 431,-72 495.5,-41.85 578.09,-28.39 626.51,-22.73"/>
<polygon fill="grey" stroke="grey" stroke-width="2" points="626.65,-26.24 636.21,-21.67 625.89,-19.28 626.65,-26.24"/>
</g>
<!-- 19 -->
<g id="node20" class="node">
<title>19</title>
<path fill="none" stroke="#56a9d8" stroke-width="2" d="M444.25,-180C444.25,-180 357.75,-180 357.75,-180 351.75,-180 345.75,-174 345.75,-168 345.75,-168 345.75,-156 345.75,-156 345.75,-150 351.75,-144 357.75,-144 357.75,-144 444.25,-144 444.25,-144 450.25,-144 456.25,-150 456.25,-156 456.25,-156 456.25,-168 456.25,-168 456.25,-174 450.25,-180 444.25,-180"/>
<text text-anchor="middle" x="401" y="-158.12" font-family="sans" font-size="10.00">mitochondrial_contigs</text>
</g>
<!-- 16&#45;&gt;19 -->
<g id="edge38" class="edge">
<title>16&#45;&gt;19</title>
<path fill="none" stroke="grey" stroke-width="2" d="M331.47,-215.34C342.18,-207.27 355.07,-197.57 366.83,-188.72"/>
<polygon fill="grey" stroke="grey" stroke-width="2" points="368.91,-191.53 374.8,-182.72 364.7,-185.94 368.91,-191.53"/>
</g>
<!-- 17&#45;&gt;0 -->
<g id="edge15" class="edge">
<title>17&#45;&gt;0</title>
<path fill="none" stroke="grey" stroke-width="2" d="M1489.57,-215.15C1461.6,-179.66 1393.08,-101.12 1314,-72 1201.87,-30.7 831.58,-21.46 707.75,-19.5"/>
<polygon fill="grey" stroke="grey" stroke-width="2" points="707.96,-16 697.91,-19.35 707.86,-23 707.96,-16"/>
</g>
<!-- 20 -->
<g id="node21" class="node">
<title>20</title>
<path fill="none" stroke="#56a9d8" stroke-width="2" d="M1393.25,-180C1393.25,-180 1306.75,-180 1306.75,-180 1300.75,-180 1294.75,-174 1294.75,-168 1294.75,-168 1294.75,-156 1294.75,-156 1294.75,-150 1300.75,-144 1306.75,-144 1306.75,-144 1393.25,-144 1393.25,-144 1399.25,-144 1405.25,-150 1405.25,-156 1405.25,-156 1405.25,-168 1405.25,-168 1405.25,-174 1399.25,-180 1393.25,-180"/>
<text text-anchor="middle" x="1350" y="-158.12" font-family="sans" font-size="10.00">mitochondrial_contigs</text>
</g>
<!-- 17&#45;&gt;20 -->
<g id="edge39" class="edge">
<title>17&#45;&gt;20</title>
<path fill="none" stroke="grey" stroke-width="2" d="M1464,-215.15C1444.83,-206.38 1421.49,-195.71 1400.93,-186.3"/>
<polygon fill="grey" stroke="grey" stroke-width="2" points="1402.5,-183.17 1391.95,-182.19 1399.59,-189.54 1402.5,-183.17"/>
</g>
<!-- 18&#45;&gt;0 -->
<g id="edge16" class="edge">
<title>18&#45;&gt;0</title>
<path fill="none" stroke="grey" stroke-width="2" d="M147.14,-215.34C135.44,-196.93 121.61,-167.55 133,-144 155.47,-97.58 176.38,-91.81 224,-72 296.34,-41.91 530.99,-26.28 626.25,-21.05"/>
<polygon fill="grey" stroke="grey" stroke-width="2" points="626.44,-24.54 636.23,-20.51 626.06,-17.55 626.44,-24.54"/>
</g>
<!-- 21 -->
<g id="node22" class="node">
<title>21</title>
<path fill="none" stroke="#56a9d8" stroke-width="2" d="M240.25,-180C240.25,-180 153.75,-180 153.75,-180 147.75,-180 141.75,-174 141.75,-168 141.75,-168 141.75,-156 141.75,-156 141.75,-150 147.75,-144 153.75,-144 153.75,-144 240.25,-144 240.25,-144 246.25,-144 252.25,-150 252.25,-156 252.25,-156 252.25,-168 252.25,-168 252.25,-174 246.25,-180 240.25,-180"/>
<text text-anchor="middle" x="197" y="-158.12" font-family="sans" font-size="10.00">mitochondrial_contigs</text>
</g>
<!-- 18&#45;&gt;21 -->
<g id="edge40" class="edge">
<title>18&#45;&gt;21</title>
<path fill="none" stroke="grey" stroke-width="2" d="M169.34,-215.34C173.03,-208.34 177.38,-200.12 181.52,-192.28"/>
<polygon fill="grey" stroke="grey" stroke-width="2" points="184.54,-194.05 186.12,-183.58 178.36,-190.78 184.54,-194.05"/>
</g>
<!-- 19&#45;&gt;0 -->
<g id="edge17" class="edge">
<title>19&#45;&gt;0</title>
<path fill="none" stroke="grey" stroke-width="2" d="M410.16,-143.13C421.48,-122.84 442.65,-90.19 470,-72 517.89,-40.14 584.31,-27.37 626.47,-22.29"/>
<polygon fill="grey" stroke="grey" stroke-width="2" points="626.68,-25.79 636.25,-21.23 625.93,-18.83 626.68,-25.79"/>
</g>
<!-- 19&#45;&gt;22 -->
<g id="edge41" class="edge">
<title>19&#45;&gt;22</title>
<path fill="none" stroke="grey" stroke-width="2" d="M456.88,-151.41C540.29,-137.1 695.39,-110.49 768.67,-97.92"/>
<polygon fill="grey" stroke="grey" stroke-width="2" points="769.12,-101.39 778.38,-96.25 767.93,-94.49 769.12,-101.39"/>
</g>
<!-- 20&#45;&gt;0 -->
<g id="edge18" class="edge">
<title>20&#45;&gt;0</title>
<path fill="none" stroke="grey" stroke-width="2" d="M1341.94,-143.37C1331.28,-122.33 1310.36,-87.99 1281,-72 1181.82,-17.98 828.66,-17.01 707.86,-18.33"/>
<polygon fill="grey" stroke="grey" stroke-width="2" points="707.94,-14.83 697.99,-18.46 708.03,-21.83 707.94,-14.83"/>
</g>
<!-- 20&#45;&gt;22 -->
<g id="edge42" class="edge">
<title>20&#45;&gt;22</title>
<path fill="none" stroke="grey" stroke-width="2" d="M1293.89,-153.74C1184.54,-139.59 945.28,-108.63 849.66,-96.26"/>
<polygon fill="grey" stroke="grey" stroke-width="2" points="850.26,-92.81 839.89,-95 849.36,-99.75 850.26,-92.81"/>
</g>
<!-- 21&#45;&gt;0 -->
<g id="edge19" class="edge">
<title>21&#45;&gt;0</title>
<path fill="none" stroke="grey" stroke-width="2" d="M205.37,-143.22C216.21,-122.37 237.18,-88.55 266,-72 326.82,-37.07 536.86,-24.38 626.23,-20.49"/>
<polygon fill="grey" stroke="grey" stroke-width="2" points="626.13,-24 635.98,-20.09 625.84,-17.01 626.13,-24"/>
</g>
<!-- 21&#45;&gt;22 -->
<g id="edge43" class="edge">
<title>21&#45;&gt;22</title>
<path fill="none" stroke="grey" stroke-width="2" d="M253.19,-154.06C278.75,-150.93 309.4,-147.23 337,-144 496.46,-125.37 686.39,-104.42 768.2,-95.46"/>
<polygon fill="grey" stroke="grey" stroke-width="2" points="768.49,-98.95 778.05,-94.38 767.73,-91.99 768.49,-98.95"/>
</g>
<!-- 22&#45;&gt;0 -->
<g id="edge20" class="edge">
<title>22&#45;&gt;0</title>
<path fill="none" stroke="grey" stroke-width="2" d="M781.28,-75.34C759.88,-64.79 729.99,-50.05 706.14,-38.3"/>
<polygon fill="grey" stroke="grey" stroke-width="2" points="707.88,-35.25 697.36,-33.97 704.78,-41.53 707.88,-35.25"/>
</g>
<!-- 23&#45;&gt;0 -->
<g id="edge21" class="edge">
<title>23&#45;&gt;0</title>
<path fill="none" stroke="grey" stroke-width="2" d="M898.35,-143.25C888.76,-123.07 870.44,-90.53 845,-72 803.97,-42.11 746.09,-28.94 707.59,-23.23"/>
<polygon fill="grey" stroke="grey" stroke-width="2" points="708.23,-19.78 697.85,-21.91 707.29,-26.72 708.23,-19.78"/>
</g>
<!-- 23&#45;&gt;22 -->
<g id="edge53" class="edge">
<title>23&#45;&gt;22</title>
<path fill="none" stroke="grey" stroke-width="2" d="M881.27,-143.15C869.98,-135.01 856.41,-125.22 844.1,-116.33"/>
<polygon fill="grey" stroke="grey" stroke-width="2" points="846.29,-113.6 836.14,-110.58 842.2,-119.27 846.29,-113.6"/>
</g>
</g>
</svg>
