<?xml version="1.0" encoding="UTF-8" standalone="no"?>
<!DOCTYPE svg PUBLIC "-//W3C//DTD SVG 1.1//EN"
 "http://www.w3.org/Graphics/SVG/1.1/DTD/svg11.dtd">
<!-- Generated by graphviz version 12.2.1 (20241206.2353)
 -->
<!-- Title: snakemake_dag Pages: 1 -->
<svg width="438pt" height="260pt"
 viewBox="0.00 0.00 437.50 260.00" xmlns="http://www.w3.org/2000/svg" xmlns:xlink="http://www.w3.org/1999/xlink">
<g id="graph0" class="graph" transform="scale(1 1) rotate(0) translate(4 256)">
<title>snakemake_dag</title>
<polygon fill="white" stroke="none" points="-4,4 -4,-256 433.5,-256 433.5,4 -4,4"/>
<!-- 0 -->
<g id="node1" class="node">
<title>0</title>
<path fill="none" stroke="#d85656" stroke-width="2" d="M202.38,-36C202.38,-36 172.38,-36 172.38,-36 166.38,-36 160.38,-30 160.38,-24 160.38,-24 160.38,-12 160.38,-12 160.38,-6 166.38,0 172.38,0 172.38,0 202.38,0 202.38,0 208.38,0 214.38,-6 214.38,-12 214.38,-12 214.38,-24 214.38,-24 214.38,-30 208.38,-36 202.38,-36"/>
<text text-anchor="middle" x="187.38" y="-14.12" font-family="sans" font-size="10.00">all</text>
</g>
<!-- 1 -->
<g id="node2" class="node">
<title>1</title>
<path fill="none" stroke="#70d856" stroke-width="2" d="M64.75,-108C64.75,-108 12,-108 12,-108 6,-108 0,-102 0,-96 0,-96 0,-84 0,-84 0,-78 6,-72 12,-72 12,-72 64.75,-72 64.75,-72 70.75,-72 76.75,-78 76.75,-84 76.75,-84 76.75,-96 76.75,-96 76.75,-102 70.75,-108 64.75,-108"/>
<text text-anchor="middle" x="38.38" y="-86.12" font-family="sans" font-size="10.00">genomescope</text>
</g>
<!-- 1&#45;&gt;0 -->
<g id="edge1" class="edge">
<title>1&#45;&gt;0</title>
<path fill="none" stroke="grey" stroke-width="2" d="M76.36,-71.15C98.33,-60.83 125.93,-47.87 148.11,-37.45"/>
<polygon fill="grey" stroke="grey" stroke-width="2" points="149.51,-40.66 157.07,-33.24 146.53,-34.32 149.51,-40.66"/>
</g>
<!-- 2 -->
<g id="node3" class="node">
<title>2</title>
<path fill="none" stroke="#56d873" stroke-width="2" d="M88.75,-180C88.75,-180 54,-180 54,-180 48,-180 42,-174 42,-168 42,-168 42,-156 42,-156 42,-150 48,-144 54,-144 54,-144 88.75,-144 88.75,-144 94.75,-144 100.75,-150 100.75,-156 100.75,-156 100.75,-168 100.75,-168 100.75,-174 94.75,-180 88.75,-180"/>
<text text-anchor="middle" x="71.38" y="-158.12" font-family="sans" font-size="10.00">kmer2hist</text>
</g>
<!-- 2&#45;&gt;1 -->
<g id="edge5" class="edge">
<title>2&#45;&gt;1</title>
<path fill="none" stroke="grey" stroke-width="2" d="M63.05,-143.34C59.79,-136.43 55.96,-128.31 52.31,-120.56"/>
<polygon fill="grey" stroke="grey" stroke-width="2" points="55.54,-119.19 48.11,-111.64 49.2,-122.18 55.54,-119.19"/>
</g>
<!-- 4 -->
<g id="node5" class="node">
<title>4</title>
<path fill="none" stroke="#5692d8" stroke-width="2" d="M149.5,-108C149.5,-108 107.25,-108 107.25,-108 101.25,-108 95.25,-102 95.25,-96 95.25,-96 95.25,-84 95.25,-84 95.25,-78 101.25,-72 107.25,-72 107.25,-72 149.5,-72 149.5,-72 155.5,-72 161.5,-78 161.5,-84 161.5,-84 161.5,-96 161.5,-96 161.5,-102 155.5,-108 149.5,-108"/>
<text text-anchor="middle" x="128.38" y="-86.12" font-family="sans" font-size="10.00">smudgeplot</text>
</g>
<!-- 2&#45;&gt;4 -->
<g id="edge7" class="edge">
<title>2&#45;&gt;4</title>
<path fill="none" stroke="grey" stroke-width="2" d="M85.76,-143.34C91.79,-135.93 98.94,-127.14 105.65,-118.9"/>
<polygon fill="grey" stroke="grey" stroke-width="2" points="108.29,-121.21 111.89,-111.25 102.86,-116.79 108.29,-121.21"/>
</g>
<!-- 3 -->
<g id="node4" class="node">
<title>3</title>
<path fill="none" stroke="#56d8a9" stroke-width="2" d="M135.5,-252C135.5,-252 63.25,-252 63.25,-252 57.25,-252 51.25,-246 51.25,-240 51.25,-240 51.25,-228 51.25,-228 51.25,-222 57.25,-216 63.25,-216 63.25,-216 135.5,-216 135.5,-216 141.5,-216 147.5,-222 147.5,-228 147.5,-228 147.5,-240 147.5,-240 147.5,-246 141.5,-252 135.5,-252"/>
<text text-anchor="middle" x="99.38" y="-235.75" font-family="sans" font-size="10.00">kmer_counter</text>
<text text-anchor="middle" x="99.38" y="-224.5" font-family="sans" font-size="10.00">sample: toy_reads</text>
</g>
<!-- 3&#45;&gt;2 -->
<g id="edge6" class="edge">
<title>3&#45;&gt;2</title>
<path fill="none" stroke="grey" stroke-width="2" d="M92.31,-215.34C89.58,-208.51 86.38,-200.5 83.31,-192.83"/>
<polygon fill="grey" stroke="grey" stroke-width="2" points="86.62,-191.7 79.66,-183.71 80.12,-194.3 86.62,-191.7"/>
</g>
<!-- 3&#45;&gt;4 -->
<g id="edge8" class="edge">
<title>3&#45;&gt;4</title>
<path fill="none" stroke="grey" stroke-width="2" d="M103.05,-215.02C107.86,-191.44 116.38,-149.73 122.2,-121.25"/>
<polygon fill="grey" stroke="grey" stroke-width="2" points="125.55,-122.3 124.13,-111.8 118.7,-120.9 125.55,-122.3"/>
</g>
<!-- 4&#45;&gt;0 -->
<g id="edge2" class="edge">
<title>4&#45;&gt;0</title>
<path fill="none" stroke="grey" stroke-width="2" d="M143.26,-71.34C149.57,-63.85 157.08,-54.95 164.09,-46.63"/>
<polygon fill="grey" stroke="grey" stroke-width="2" points="166.57,-49.12 170.34,-39.22 161.21,-44.61 166.57,-49.12"/>
</g>
<!-- 5 -->
<g id="node6" class="node">
<title>5</title>
<path fill="none" stroke="#d8cb56" stroke-width="2" d="M303.38,-108C303.38,-108 191.38,-108 191.38,-108 185.38,-108 179.38,-102 179.38,-96 179.38,-96 179.38,-84 179.38,-84 179.38,-78 185.38,-72 191.38,-72 191.38,-72 303.38,-72 303.38,-72 309.38,-72 315.38,-78 315.38,-84 315.38,-84 315.38,-96 315.38,-96 315.38,-102 309.38,-108 303.38,-108"/>
<text text-anchor="middle" x="247.38" y="-86.12" font-family="sans" font-size="10.00">contamination_visualisation</text>
</g>
<!-- 5&#45;&gt;0 -->
<g id="edge3" class="edge">
<title>5&#45;&gt;0</title>
<path fill="none" stroke="grey" stroke-width="2" d="M232.23,-71.34C225.82,-63.85 218.19,-54.95 211.06,-46.63"/>
<polygon fill="grey" stroke="grey" stroke-width="2" points="213.85,-44.51 204.69,-39.2 208.54,-49.07 213.85,-44.51"/>
</g>
<!-- 6 -->
<g id="node7" class="node">
<title>6</title>
<path fill="none" stroke="#d88d56" stroke-width="2" d="M298.5,-180C298.5,-180 196.25,-180 196.25,-180 190.25,-180 184.25,-174 184.25,-168 184.25,-168 184.25,-156 184.25,-156 184.25,-150 190.25,-144 196.25,-144 196.25,-144 298.5,-144 298.5,-144 304.5,-144 310.5,-150 310.5,-156 310.5,-156 310.5,-168 310.5,-168 310.5,-174 304.5,-180 298.5,-180"/>
<text text-anchor="middle" x="247.38" y="-163.75" font-family="sans" font-size="10.00">contamination_evaluation</text>
<text text-anchor="middle" x="247.38" y="-152.5" font-family="sans" font-size="10.00">sample: toy_reads</text>
</g>
<!-- 6&#45;&gt;5 -->
<g id="edge9" class="edge">
<title>6&#45;&gt;5</title>
<path fill="none" stroke="grey" stroke-width="2" d="M247.38,-143.34C247.38,-136.75 247.38,-129.08 247.38,-121.67"/>
<polygon fill="grey" stroke="grey" stroke-width="2" points="250.88,-121.93 247.38,-111.93 243.88,-121.93 250.88,-121.93"/>
</g>
<!-- 7 -->
<g id="node8" class="node">
<title>7</title>
<path fill="none" stroke="#56c9d8" stroke-width="2" d="M417.5,-108C417.5,-108 345.25,-108 345.25,-108 339.25,-108 333.25,-102 333.25,-96 333.25,-96 333.25,-84 333.25,-84 333.25,-78 339.25,-72 345.25,-72 345.25,-72 417.5,-72 417.5,-72 423.5,-72 429.5,-78 429.5,-84 429.5,-84 429.5,-96 429.5,-96 429.5,-102 423.5,-108 417.5,-108"/>
<text text-anchor="middle" x="381.38" y="-91.75" font-family="sans" font-size="10.00">nanoplot</text>
<text text-anchor="middle" x="381.38" y="-80.5" font-family="sans" font-size="10.00">sample: toy_reads</text>
</g>
<!-- 7&#45;&gt;0 -->
<g id="edge4" class="edge">
<title>7&#45;&gt;0</title>
<path fill="none" stroke="grey" stroke-width="2" d="M332.42,-71.34C299.86,-59.59 257.65,-44.36 227.16,-33.36"/>
<polygon fill="grey" stroke="grey" stroke-width="2" points="228.73,-30.2 218.13,-30.1 226.35,-36.78 228.73,-30.2"/>
</g>
</g>
</svg>
