<?xml version="1.0" encoding="UTF-8" standalone="no"?>
<!DOCTYPE svg PUBLIC "-//W3C//DTD SVG 1.1//EN"
 "http://www.w3.org/Graphics/SVG/1.1/DTD/svg11.dtd">
<!-- Generated by graphviz version 12.2.1 (20241206.2353)
 -->
<!-- Title: snakemake_dag Pages: 1 -->
<svg width="375pt" height="476pt"
 viewBox="0.00 0.00 375.05 476.00" xmlns="http://www.w3.org/2000/svg" xmlns:xlink="http://www.w3.org/1999/xlink">
<g id="graph0" class="graph" transform="scale(1 1) rotate(0) translate(4 472)">
<title>snakemake_dag</title>
<polygon fill="white" stroke="none" points="-4,4 -4,-472 371.05,-472 371.05,4 -4,4"/>
<!-- 0 -->
<g id="node1" class="node">
<title>0</title>
<path fill="none" stroke="#d85656" stroke-width="2" d="M157.05,-36C157.05,-36 127.05,-36 127.05,-36 121.05,-36 115.05,-30 115.05,-24 115.05,-24 115.05,-12 115.05,-12 115.05,-6 121.05,0 127.05,0 127.05,0 157.05,0 157.05,0 163.05,0 169.05,-6 169.05,-12 169.05,-12 169.05,-24 169.05,-24 169.05,-30 163.05,-36 157.05,-36"/>
<text text-anchor="middle" x="142.05" y="-14.12" font-family="sans" font-size="10.00">all</text>
</g>
<!-- 1 -->
<g id="node2" class="node">
<title>1</title>
<path fill="none" stroke="#9fd856" stroke-width="2" d="M78.43,-108C78.43,-108 25.68,-108 25.68,-108 19.68,-108 13.68,-102 13.68,-96 13.68,-96 13.68,-84 13.68,-84 13.68,-78 19.68,-72 25.68,-72 25.68,-72 78.43,-72 78.43,-72 84.43,-72 90.43,-78 90.43,-84 90.43,-84 90.43,-96 90.43,-96 90.43,-102 84.43,-108 78.43,-108"/>
<text text-anchor="middle" x="52.05" y="-86.12" font-family="sans" font-size="10.00">genomescope</text>
</g>
<!-- 1&#45;&gt;0 -->
<g id="edge1" class="edge">
<title>1&#45;&gt;0</title>
<path fill="none" stroke="grey" stroke-width="2" d="M74.76,-71.34C85.13,-63.27 97.61,-53.57 108.98,-44.72"/>
<polygon fill="grey" stroke="grey" stroke-width="2" points="110.9,-47.66 116.65,-38.76 106.6,-42.14 110.9,-47.66"/>
</g>
<!-- 2 -->
<g id="node3" class="node">
<title>2</title>
<path fill="none" stroke="#56d86b" stroke-width="2" d="M102.43,-180C102.43,-180 67.68,-180 67.68,-180 61.68,-180 55.68,-174 55.68,-168 55.68,-168 55.68,-156 55.68,-156 55.68,-150 61.68,-144 67.68,-144 67.68,-144 102.43,-144 102.43,-144 108.43,-144 114.43,-150 114.43,-156 114.43,-156 114.43,-168 114.43,-168 114.43,-174 108.43,-180 102.43,-180"/>
<text text-anchor="middle" x="85.05" y="-158.12" font-family="sans" font-size="10.00">kmer2hist</text>
</g>
<!-- 2&#45;&gt;1 -->
<g id="edge6" class="edge">
<title>2&#45;&gt;1</title>
<path fill="none" stroke="grey" stroke-width="2" d="M76.72,-143.34C73.47,-136.43 69.64,-128.31 65.99,-120.56"/>
<polygon fill="grey" stroke="grey" stroke-width="2" points="69.21,-119.19 61.78,-111.64 62.88,-122.18 69.21,-119.19"/>
</g>
<!-- 7 -->
<g id="node8" class="node">
<title>7</title>
<path fill="none" stroke="#5682d8" stroke-width="2" d="M163.18,-108C163.18,-108 120.93,-108 120.93,-108 114.93,-108 108.93,-102 108.93,-96 108.93,-96 108.93,-84 108.93,-84 108.93,-78 114.93,-72 120.93,-72 120.93,-72 163.18,-72 163.18,-72 169.18,-72 175.18,-78 175.18,-84 175.18,-84 175.18,-96 175.18,-96 175.18,-102 169.18,-108 163.18,-108"/>
<text text-anchor="middle" x="142.05" y="-86.12" font-family="sans" font-size="10.00">smudgeplot</text>
</g>
<!-- 2&#45;&gt;7 -->
<g id="edge12" class="edge">
<title>2&#45;&gt;7</title>
<path fill="none" stroke="grey" stroke-width="2" d="M99.43,-143.34C105.46,-135.93 112.62,-127.14 119.33,-118.9"/>
<polygon fill="grey" stroke="grey" stroke-width="2" points="121.96,-121.21 125.56,-111.25 116.53,-116.79 121.96,-121.21"/>
</g>
<!-- 3 -->
<g id="node4" class="node">
<title>3</title>
<path fill="none" stroke="#56d89a" stroke-width="2" d="M145.68,-252C145.68,-252 94.43,-252 94.43,-252 88.43,-252 82.43,-246 82.43,-240 82.43,-240 82.43,-228 82.43,-228 82.43,-222 88.43,-216 94.43,-216 94.43,-216 145.68,-216 145.68,-216 151.68,-216 157.68,-222 157.68,-228 157.68,-228 157.68,-240 157.68,-240 157.68,-246 151.68,-252 145.68,-252"/>
<text text-anchor="middle" x="120.05" y="-230.12" font-family="sans" font-size="10.00">kmer_counter</text>
</g>
<!-- 3&#45;&gt;2 -->
<g id="edge7" class="edge">
<title>3&#45;&gt;2</title>
<path fill="none" stroke="grey" stroke-width="2" d="M111.22,-215.34C107.72,-208.34 103.61,-200.12 99.69,-192.28"/>
<polygon fill="grey" stroke="grey" stroke-width="2" points="102.96,-190.99 95.36,-183.61 96.7,-194.12 102.96,-190.99"/>
</g>
<!-- 3&#45;&gt;7 -->
<g id="edge13" class="edge">
<title>3&#45;&gt;7</title>
<path fill="none" stroke="grey" stroke-width="2" d="M122.84,-215.02C126.47,-191.54 132.89,-150.11 137.3,-121.64"/>
<polygon fill="grey" stroke="grey" stroke-width="2" points="140.75,-122.25 138.82,-111.83 133.83,-121.18 140.75,-122.25"/>
</g>
<!-- 4 -->
<g id="node5" class="node">
<title>4</title>
<path fill="none" stroke="#d8b456" stroke-width="2" d="M210.55,-324C210.55,-324 125.55,-324 125.55,-324 119.55,-324 113.55,-318 113.55,-312 113.55,-312 113.55,-300 113.55,-300 113.55,-294 119.55,-288 125.55,-288 125.55,-288 210.55,-288 210.55,-288 216.55,-288 222.55,-294 222.55,-300 222.55,-300 222.55,-312 222.55,-312 222.55,-318 216.55,-324 210.55,-324"/>
<text text-anchor="middle" x="168.05" y="-302.12" font-family="sans" font-size="10.00">decontaminate_reads</text>
</g>
<!-- 4&#45;&gt;0 -->
<g id="edge5" class="edge">
<title>4&#45;&gt;0</title>
<path fill="none" stroke="grey" stroke-width="2" d="M122.99,-287.04C105.71,-278.45 86.85,-266.76 73.05,-252 24.73,-200.29 20.54,-177.06 5.05,-108 1.55,-92.39 -3.99,-85.2 5.05,-72 26.53,-40.66 69.4,-27.85 101.5,-22.61"/>
<polygon fill="grey" stroke="grey" stroke-width="2" points="101.65,-26.13 111.07,-21.27 100.68,-19.19 101.65,-26.13"/>
</g>
<!-- 4&#45;&gt;3 -->
<g id="edge8" class="edge">
<title>4&#45;&gt;3</title>
<path fill="none" stroke="grey" stroke-width="2" d="M155.94,-287.34C150.97,-280.1 145.1,-271.53 139.56,-263.45"/>
<polygon fill="grey" stroke="grey" stroke-width="2" points="142.58,-261.67 134.04,-255.4 136.81,-265.62 142.58,-261.67"/>
</g>
<!-- 9 -->
<g id="node10" class="node">
<title>9</title>
<path fill="none" stroke="#56b1d8" stroke-width="2" d="M218.05,-252C218.05,-252 188.05,-252 188.05,-252 182.05,-252 176.05,-246 176.05,-240 176.05,-240 176.05,-228 176.05,-228 176.05,-222 182.05,-216 188.05,-216 188.05,-216 218.05,-216 218.05,-216 224.05,-216 230.05,-222 230.05,-228 230.05,-228 230.05,-240 230.05,-240 230.05,-246 224.05,-252 218.05,-252"/>
<text text-anchor="middle" x="203.05" y="-230.12" font-family="sans" font-size="10.00">nanoplot</text>
</g>
<!-- 4&#45;&gt;9 -->
<g id="edge15" class="edge">
<title>4&#45;&gt;9</title>
<path fill="none" stroke="grey" stroke-width="2" d="M176.88,-287.34C180.38,-280.34 184.49,-272.12 188.41,-264.28"/>
<polygon fill="grey" stroke="grey" stroke-width="2" points="191.4,-266.12 192.75,-255.61 185.14,-262.99 191.4,-266.12"/>
</g>
<!-- 5 -->
<g id="node6" class="node">
<title>5</title>
<path fill="none" stroke="#70d856" stroke-width="2" d="M240.18,-468C240.18,-468 167.93,-468 167.93,-468 161.93,-468 155.93,-462 155.93,-456 155.93,-456 155.93,-444 155.93,-444 155.93,-438 161.93,-432 167.93,-432 167.93,-432 240.18,-432 240.18,-432 246.18,-432 252.18,-438 252.18,-444 252.18,-444 252.18,-456 252.18,-456 252.18,-462 246.18,-468 240.18,-468"/>
<text text-anchor="middle" x="204.05" y="-451.75" font-family="sans" font-size="10.00">hifiadapterfilt</text>
<text text-anchor="middle" x="204.05" y="-440.5" font-family="sans" font-size="10.00">sample: toy_reads</text>
</g>
<!-- 5&#45;&gt;4 -->
<g id="edge9" class="edge">
<title>5&#45;&gt;4</title>
<path fill="none" stroke="grey" stroke-width="2" d="M197.94,-431.46C194.49,-421.2 190.24,-407.95 187.05,-396 181.92,-376.73 177.23,-354.82 173.79,-337.56"/>
<polygon fill="grey" stroke="grey" stroke-width="2" points="177.24,-336.97 171.9,-327.83 170.37,-338.31 177.24,-336.97"/>
</g>
<!-- 6 -->
<g id="node7" class="node">
<title>6</title>
<path fill="none" stroke="#56d8c9" stroke-width="2" d="M273.8,-396C273.8,-396 208.3,-396 208.3,-396 202.3,-396 196.3,-390 196.3,-384 196.3,-384 196.3,-372 196.3,-372 196.3,-366 202.3,-360 208.3,-360 208.3,-360 273.8,-360 273.8,-360 279.8,-360 285.8,-366 285.8,-372 285.8,-372 285.8,-384 285.8,-384 285.8,-390 279.8,-396 273.8,-396"/>
<text text-anchor="middle" x="241.05" y="-374.12" font-family="sans" font-size="10.00">kraken2_classify</text>
</g>
<!-- 5&#45;&gt;6 -->
<g id="edge11" class="edge">
<title>5&#45;&gt;6</title>
<path fill="none" stroke="grey" stroke-width="2" d="M213.39,-431.34C217.08,-424.34 221.43,-416.12 225.57,-408.28"/>
<polygon fill="grey" stroke="grey" stroke-width="2" points="228.6,-410.05 230.17,-399.58 222.41,-406.78 228.6,-410.05"/>
</g>
<!-- 6&#45;&gt;4 -->
<g id="edge10" class="edge">
<title>6&#45;&gt;4</title>
<path fill="none" stroke="grey" stroke-width="2" d="M222.63,-359.34C214.57,-351.6 204.93,-342.36 196.01,-333.81"/>
<polygon fill="grey" stroke="grey" stroke-width="2" points="198.55,-331.39 188.91,-327 193.7,-336.44 198.55,-331.39"/>
</g>
<!-- 8 -->
<g id="node9" class="node">
<title>8</title>
<path fill="none" stroke="#d88556" stroke-width="2" d="M355.05,-180C355.05,-180 243.05,-180 243.05,-180 237.05,-180 231.05,-174 231.05,-168 231.05,-168 231.05,-156 231.05,-156 231.05,-150 237.05,-144 243.05,-144 243.05,-144 355.05,-144 355.05,-144 361.05,-144 367.05,-150 367.05,-156 367.05,-156 367.05,-168 367.05,-168 367.05,-174 361.05,-180 355.05,-180"/>
<text text-anchor="middle" x="299.05" y="-158.12" font-family="sans" font-size="10.00">contamination_visualisation</text>
</g>
<!-- 6&#45;&gt;8 -->
<g id="edge14" class="edge">
<title>6&#45;&gt;8</title>
<path fill="none" stroke="grey" stroke-width="2" d="M245.9,-359.12C255.81,-322.54 278.52,-238.77 290.8,-193.45"/>
<polygon fill="grey" stroke="grey" stroke-width="2" points="294.15,-194.47 293.39,-183.9 287.39,-192.63 294.15,-194.47"/>
</g>
<!-- 7&#45;&gt;0 -->
<g id="edge2" class="edge">
<title>7&#45;&gt;0</title>
<path fill="none" stroke="grey" stroke-width="2" d="M142.05,-71.34C142.05,-64.75 142.05,-57.08 142.05,-49.67"/>
<polygon fill="grey" stroke="grey" stroke-width="2" points="145.55,-49.93 142.05,-39.93 138.55,-49.93 145.55,-49.93"/>
</g>
<!-- 8&#45;&gt;0 -->
<g id="edge3" class="edge">
<title>8&#45;&gt;0</title>
<path fill="none" stroke="grey" stroke-width="2" d="M284.64,-143.25C268.99,-124.5 242.78,-94.6 217.05,-72 205.77,-62.09 192.64,-52.3 180.55,-43.88"/>
<polygon fill="grey" stroke="grey" stroke-width="2" points="182.55,-41.01 172.32,-38.28 178.61,-46.8 182.55,-41.01"/>
</g>
<!-- 9&#45;&gt;0 -->
<g id="edge4" class="edge">
<title>9&#45;&gt;0</title>
<path fill="none" stroke="grey" stroke-width="2" d="M204.04,-215.3C205.08,-184.79 204.35,-120.86 184.05,-72 180.33,-63.06 174.65,-54.37 168.66,-46.71"/>
<polygon fill="grey" stroke="grey" stroke-width="2" points="171.51,-44.67 162.39,-39.28 166.16,-49.18 171.51,-44.67"/>
</g>
</g>
</svg>
