<?xml version="1.0" encoding="UTF-8" standalone="no"?>
<!DOCTYPE svg PUBLIC "-//W3C//DTD SVG 1.1//EN"
 "http://www.w3.org/Graphics/SVG/1.1/DTD/svg11.dtd">
<!-- Generated by graphviz version 11.0.0 (20240519.1550)
 -->
<!-- Title: snakemake_dag Pages: 1 -->
<svg width="817pt" height="332pt"
 viewBox="0.00 0.00 817.25 332.00" xmlns="http://www.w3.org/2000/svg" xmlns:xlink="http://www.w3.org/1999/xlink">
<g id="graph0" class="graph" transform="scale(1 1) rotate(0) translate(4 328)">
<title>snakemake_dag</title>
<polygon fill="white" stroke="none" points="-4,4 -4,-328 813.25,-328 813.25,4 -4,4"/>
<!-- 0 -->
<g id="node1" class="node">
<title>0</title>
<path fill="none" stroke="#56d88a" stroke-width="2" d="M325.62,-36C325.62,-36 295.62,-36 295.62,-36 289.62,-36 283.62,-30 283.62,-24 283.62,-24 283.62,-12 283.62,-12 283.62,-6 289.62,0 295.62,0 295.62,0 325.62,0 325.62,0 331.62,0 337.62,-6 337.62,-12 337.62,-12 337.62,-24 337.62,-24 337.62,-30 331.62,-36 325.62,-36"/>
<text text-anchor="middle" x="310.62" y="-14.88" font-family="sans" font-size="10.00">all</text>
</g>
<!-- 1 -->
<g id="node2" class="node">
<title>1</title>
<path fill="none" stroke="#59d856" stroke-width="2" d="M81.75,-108C81.75,-108 21.5,-108 21.5,-108 15.5,-108 9.5,-102 9.5,-96 9.5,-96 9.5,-84 9.5,-84 9.5,-78 15.5,-72 21.5,-72 21.5,-72 81.75,-72 81.75,-72 87.75,-72 93.75,-78 93.75,-84 93.75,-84 93.75,-96 93.75,-96 93.75,-102 87.75,-108 81.75,-108"/>
<text text-anchor="middle" x="51.62" y="-86.88" font-family="sans" font-size="10.00">genomescope</text>
</g>
<!-- 1&#45;&gt;0 -->
<g id="edge1" class="edge">
<title>1&#45;&gt;0</title>
<path fill="none" stroke="grey" stroke-width="2" d="M94.68,-74.4C97.37,-73.57 100.03,-72.76 102.62,-72 160.5,-55 228.35,-38.31 270.41,-28.33"/>
<polygon fill="grey" stroke="grey" stroke-width="2" points="270.99,-31.8 279.92,-26.09 269.38,-24.98 270.99,-31.8"/>
</g>
<!-- 2 -->
<g id="node3" class="node">
<title>2</title>
<path fill="none" stroke="#56c1d8" stroke-width="2" d="M121.38,-180C121.38,-180 79.88,-180 79.88,-180 73.88,-180 67.88,-174 67.88,-168 67.88,-168 67.88,-156 67.88,-156 67.88,-150 73.88,-144 79.88,-144 79.88,-144 121.38,-144 121.38,-144 127.38,-144 133.38,-150 133.38,-156 133.38,-156 133.38,-168 133.38,-168 133.38,-174 127.38,-180 121.38,-180"/>
<text text-anchor="middle" x="100.62" y="-158.88" font-family="sans" font-size="10.00">kmer2hist</text>
</g>
<!-- 2&#45;&gt;1 -->
<g id="edge6" class="edge">
<title>2&#45;&gt;1</title>
<path fill="none" stroke="grey" stroke-width="2" d="M88.26,-143.34C83.19,-136.1 77.2,-127.53 71.54,-119.45"/>
<polygon fill="grey" stroke="grey" stroke-width="2" points="74.49,-117.57 65.89,-111.38 68.76,-121.58 74.49,-117.57"/>
</g>
<!-- 5 -->
<g id="node6" class="node">
<title>5</title>
<path fill="none" stroke="#bed856" stroke-width="2" d="M173.5,-108C173.5,-108 123.75,-108 123.75,-108 117.75,-108 111.75,-102 111.75,-96 111.75,-96 111.75,-84 111.75,-84 111.75,-78 117.75,-72 123.75,-72 123.75,-72 173.5,-72 173.5,-72 179.5,-72 185.5,-78 185.5,-84 185.5,-84 185.5,-96 185.5,-96 185.5,-102 179.5,-108 173.5,-108"/>
<text text-anchor="middle" x="148.62" y="-86.88" font-family="sans" font-size="10.00">smudgeplot</text>
</g>
<!-- 2&#45;&gt;5 -->
<g id="edge9" class="edge">
<title>2&#45;&gt;5</title>
<path fill="none" stroke="grey" stroke-width="2" d="M112.74,-143.34C117.7,-136.1 123.57,-127.53 129.12,-119.45"/>
<polygon fill="grey" stroke="grey" stroke-width="2" points="131.87,-121.62 134.64,-111.4 126.1,-117.67 131.87,-121.62"/>
</g>
<!-- 3 -->
<g id="node4" class="node">
<title>3</title>
<path fill="none" stroke="#d8bc56" stroke-width="2" d="M130.38,-252C130.38,-252 70.88,-252 70.88,-252 64.88,-252 58.88,-246 58.88,-240 58.88,-240 58.88,-228 58.88,-228 58.88,-222 64.88,-216 70.88,-216 70.88,-216 130.38,-216 130.38,-216 136.38,-216 142.38,-222 142.38,-228 142.38,-228 142.38,-240 142.38,-240 142.38,-246 136.38,-252 130.38,-252"/>
<text text-anchor="middle" x="100.62" y="-230.88" font-family="sans" font-size="10.00">kmer_counter</text>
</g>
<!-- 3&#45;&gt;2 -->
<g id="edge7" class="edge">
<title>3&#45;&gt;2</title>
<path fill="none" stroke="grey" stroke-width="2" d="M100.62,-215.34C100.62,-208.75 100.62,-201.08 100.62,-193.67"/>
<polygon fill="grey" stroke="grey" stroke-width="2" points="104.13,-193.93 100.63,-183.93 97.13,-193.93 104.13,-193.93"/>
</g>
<!-- 4 -->
<g id="node5" class="node">
<title>4</title>
<path fill="none" stroke="#88d856" stroke-width="2" d="M189.25,-324C189.25,-324 12,-324 12,-324 6,-324 0,-318 0,-312 0,-312 0,-300 0,-300 0,-294 6,-288 12,-288 12,-288 189.25,-288 189.25,-288 195.25,-288 201.25,-294 201.25,-300 201.25,-300 201.25,-312 201.25,-312 201.25,-318 195.25,-324 189.25,-324"/>
<text text-anchor="middle" x="100.62" y="-309.25" font-family="sans" font-size="10.00">fasta2fastq</text>
<text text-anchor="middle" x="100.62" y="-296.5" font-family="sans" font-size="10.00">sample: data/reads/smeds_concat.ccs</text>
</g>
<!-- 4&#45;&gt;3 -->
<g id="edge8" class="edge">
<title>4&#45;&gt;3</title>
<path fill="none" stroke="grey" stroke-width="2" d="M100.62,-287.34C100.62,-280.75 100.62,-273.08 100.62,-265.67"/>
<polygon fill="grey" stroke="grey" stroke-width="2" points="104.13,-265.93 100.63,-255.93 97.13,-265.93 104.13,-265.93"/>
</g>
<!-- 5&#45;&gt;0 -->
<g id="edge2" class="edge">
<title>5&#45;&gt;0</title>
<path fill="none" stroke="grey" stroke-width="2" d="M186.2,-72.76C211.7,-61.75 245.35,-47.21 271.22,-36.03"/>
<polygon fill="grey" stroke="grey" stroke-width="2" points="272.3,-39.37 280.09,-32.19 269.52,-32.95 272.3,-39.37"/>
</g>
<!-- 6 -->
<g id="node7" class="node">
<title>6</title>
<path fill="none" stroke="#56d8c1" stroke-width="2" d="M405.62,-108C405.62,-108 215.62,-108 215.62,-108 209.62,-108 203.62,-102 203.62,-96 203.62,-96 203.62,-84 203.62,-84 203.62,-78 209.62,-72 215.62,-72 215.62,-72 405.62,-72 405.62,-72 411.62,-72 417.62,-78 417.62,-84 417.62,-84 417.62,-96 417.62,-96 417.62,-102 411.62,-108 405.62,-108"/>
<text text-anchor="middle" x="310.62" y="-93.25" font-family="sans" font-size="10.00">kat2</text>
<text text-anchor="middle" x="310.62" y="-80.5" font-family="sans" font-size="10.00">sample: data/reads/smeds_concat.ccs.fa</text>
</g>
<!-- 6&#45;&gt;0 -->
<g id="edge3" class="edge">
<title>6&#45;&gt;0</title>
<path fill="none" stroke="grey" stroke-width="2" d="M310.62,-71.34C310.62,-64.75 310.62,-57.08 310.62,-49.67"/>
<polygon fill="grey" stroke="grey" stroke-width="2" points="314.13,-49.93 310.63,-39.93 307.13,-49.93 314.13,-49.93"/>
</g>
<!-- 7 -->
<g id="node8" class="node">
<title>7</title>
<path fill="none" stroke="#d85656" stroke-width="2" d="M577.62,-108C577.62,-108 447.62,-108 447.62,-108 441.62,-108 435.62,-102 435.62,-96 435.62,-96 435.62,-84 435.62,-84 435.62,-78 441.62,-72 447.62,-72 447.62,-72 577.62,-72 577.62,-72 583.62,-72 589.62,-78 589.62,-84 589.62,-84 589.62,-96 589.62,-96 589.62,-102 583.62,-108 577.62,-108"/>
<text text-anchor="middle" x="512.62" y="-86.88" font-family="sans" font-size="10.00">contamination_visualisation</text>
</g>
<!-- 7&#45;&gt;0 -->
<g id="edge4" class="edge">
<title>7&#45;&gt;0</title>
<path fill="none" stroke="grey" stroke-width="2" d="M460.87,-71.06C426.66,-59.21 382.46,-43.89 350.88,-32.95"/>
<polygon fill="grey" stroke="grey" stroke-width="2" points="352.06,-29.65 341.46,-29.69 349.77,-36.27 352.06,-29.65"/>
</g>
<!-- 8 -->
<g id="node9" class="node">
<title>8</title>
<path fill="none" stroke="#568ad8" stroke-width="2" d="M601.25,-180C601.25,-180 424,-180 424,-180 418,-180 412,-174 412,-168 412,-168 412,-156 412,-156 412,-150 418,-144 424,-144 424,-144 601.25,-144 601.25,-144 607.25,-144 613.25,-150 613.25,-156 613.25,-156 613.25,-168 613.25,-168 613.25,-174 607.25,-180 601.25,-180"/>
<text text-anchor="middle" x="512.62" y="-165.25" font-family="sans" font-size="10.00">contamination_evaluation</text>
<text text-anchor="middle" x="512.62" y="-152.5" font-family="sans" font-size="10.00">sample: data/reads/smeds_concat.ccs</text>
</g>
<!-- 8&#45;&gt;7 -->
<g id="edge10" class="edge">
<title>8&#45;&gt;7</title>
<path fill="none" stroke="grey" stroke-width="2" d="M512.62,-143.34C512.62,-136.75 512.62,-129.08 512.62,-121.67"/>
<polygon fill="grey" stroke="grey" stroke-width="2" points="516.13,-121.93 512.63,-111.93 509.13,-121.93 516.13,-121.93"/>
</g>
<!-- 9 -->
<g id="node10" class="node">
<title>9</title>
<path fill="none" stroke="#d88d56" stroke-width="2" d="M797.25,-108C797.25,-108 620,-108 620,-108 614,-108 608,-102 608,-96 608,-96 608,-84 608,-84 608,-78 614,-72 620,-72 620,-72 797.25,-72 797.25,-72 803.25,-72 809.25,-78 809.25,-84 809.25,-84 809.25,-96 809.25,-96 809.25,-102 803.25,-108 797.25,-108"/>
<text text-anchor="middle" x="708.62" y="-93.25" font-family="sans" font-size="10.00">nanoplot</text>
<text text-anchor="middle" x="708.62" y="-80.5" font-family="sans" font-size="10.00">sample: data/reads/smeds_concat.ccs</text>
</g>
<!-- 9&#45;&gt;0 -->
<g id="edge5" class="edge">
<title>9&#45;&gt;0</title>
<path fill="none" stroke="grey" stroke-width="2" d="M607.16,-71.15C523.87,-56.51 410.3,-36.53 350.77,-26.06"/>
<polygon fill="grey" stroke="grey" stroke-width="2" points="351.67,-22.67 341.21,-24.38 350.46,-29.56 351.67,-22.67"/>
</g>
</g>
</svg>
