<?xml version="1.0" encoding="UTF-8" standalone="no"?>
<!DOCTYPE svg PUBLIC "-//W3C//DTD SVG 1.1//EN"
 "http://www.w3.org/Graphics/SVG/1.1/DTD/svg11.dtd">
<!-- Generated by graphviz version 11.0.0 (20240519.1550)
 -->
<!-- Title: snakemake_dag Pages: 1 -->
<svg width="1103pt" height="692pt"
 viewBox="0.00 0.00 1103.00 692.00" xmlns="http://www.w3.org/2000/svg" xmlns:xlink="http://www.w3.org/1999/xlink">
<g id="graph0" class="graph" transform="scale(1 1) rotate(0) translate(4 688)">
<title>snakemake_dag</title>
<polygon fill="white" stroke="none" points="-4,4 -4,-688 1099,-688 1099,4 -4,4"/>
<!-- 0 -->
<g id="node1" class="node">
<title>0</title>
<path fill="none" stroke="#d85656" stroke-width="2" d="M621,-36C621,-36 591,-36 591,-36 585,-36 579,-30 579,-24 579,-24 579,-12 579,-12 579,-6 585,0 591,0 591,0 621,0 621,0 627,0 633,-6 633,-12 633,-12 633,-24 633,-24 633,-30 627,-36 621,-36"/>
<text text-anchor="middle" x="606" y="-14.88" font-family="sans" font-size="10.00">all</text>
</g>
<!-- 1 -->
<g id="node2" class="node">
<title>1</title>
<path fill="none" stroke="#8fd856" stroke-width="2" d="M616,-324C616,-324 586,-324 586,-324 580,-324 574,-318 574,-312 574,-312 574,-300 574,-300 574,-294 580,-288 586,-288 586,-288 616,-288 616,-288 622,-288 628,-294 628,-300 628,-300 628,-312 628,-312 628,-318 622,-324 616,-324"/>
<text text-anchor="middle" x="601" y="-302.88" font-family="sans" font-size="10.00">hic_qc</text>
</g>
<!-- 1&#45;&gt;0 -->
<g id="edge1" class="edge">
<title>1&#45;&gt;0</title>
<path fill="none" stroke="grey" stroke-width="2" d="M601.31,-287.11C602.14,-239.56 604.42,-109.6 605.46,-49.83"/>
<polygon fill="grey" stroke="grey" stroke-width="2" points="608.96,-49.97 605.63,-39.91 601.96,-49.85 608.96,-49.97"/>
</g>
<!-- 2 -->
<g id="node3" class="node">
<title>2</title>
<path fill="none" stroke="#56d8b9" stroke-width="2" d="M643.5,-468C643.5,-468 570.5,-468 570.5,-468 564.5,-468 558.5,-462 558.5,-456 558.5,-456 558.5,-444 558.5,-444 558.5,-438 564.5,-432 570.5,-432 570.5,-432 643.5,-432 643.5,-432 649.5,-432 655.5,-438 655.5,-444 655.5,-444 655.5,-456 655.5,-456 655.5,-462 649.5,-468 643.5,-468"/>
<text text-anchor="middle" x="607" y="-446.88" font-family="sans" font-size="10.00">mark_duplicates</text>
</g>
<!-- 2&#45;&gt;1 -->
<g id="edge17" class="edge">
<title>2&#45;&gt;1</title>
<path fill="none" stroke="grey" stroke-width="2" d="M606.24,-431.02C605.25,-407.54 603.5,-366.11 602.29,-337.64"/>
<polygon fill="grey" stroke="grey" stroke-width="2" points="605.8,-337.71 601.88,-327.86 598.81,-338 605.8,-337.71"/>
</g>
<!-- 16 -->
<g id="node17" class="node">
<title>16</title>
<path fill="none" stroke="#68d856" stroke-width="2" d="M731.12,-396C731.12,-396 700.88,-396 700.88,-396 694.88,-396 688.88,-390 688.88,-384 688.88,-384 688.88,-372 688.88,-372 688.88,-366 694.88,-360 700.88,-360 700.88,-360 731.12,-360 731.12,-360 737.12,-360 743.12,-366 743.12,-372 743.12,-372 743.12,-384 743.12,-384 743.12,-390 737.12,-396 731.12,-396"/>
<text text-anchor="middle" x="716" y="-374.88" font-family="sans" font-size="10.00">scaffold</text>
</g>
<!-- 2&#45;&gt;16 -->
<g id="edge29" class="edge">
<title>2&#45;&gt;16</title>
<path fill="none" stroke="grey" stroke-width="2" d="M634.79,-431.15C647.73,-422.84 663.34,-412.82 677.4,-403.79"/>
<polygon fill="grey" stroke="grey" stroke-width="2" points="679.19,-406.8 685.72,-398.45 675.41,-400.91 679.19,-406.8"/>
</g>
<!-- 3 -->
<g id="node4" class="node">
<title>3</title>
<path fill="none" stroke="#56d0d8" stroke-width="2" d="M468.25,-540C468.25,-540 417.75,-540 417.75,-540 411.75,-540 405.75,-534 405.75,-528 405.75,-528 405.75,-516 405.75,-516 405.75,-510 411.75,-504 417.75,-504 417.75,-504 468.25,-504 468.25,-504 474.25,-504 480.25,-510 480.25,-516 480.25,-516 480.25,-528 480.25,-528 480.25,-534 474.25,-540 468.25,-540"/>
<text text-anchor="middle" x="443" y="-518.88" font-family="sans" font-size="10.00">merge_bam</text>
</g>
<!-- 3&#45;&gt;2 -->
<g id="edge18" class="edge">
<title>3&#45;&gt;2</title>
<path fill="none" stroke="grey" stroke-width="2" d="M481.04,-504.76C502.39,-495.65 529.39,-484.13 552.91,-474.09"/>
<polygon fill="grey" stroke="grey" stroke-width="2" points="554.24,-477.33 562.06,-470.18 551.49,-470.89 554.24,-477.33"/>
</g>
<!-- 34 -->
<g id="node35" class="node">
<title>34</title>
<path fill="none" stroke="#56a9d8" stroke-width="2" d="M485.12,-180C485.12,-180 454.88,-180 454.88,-180 448.88,-180 442.88,-174 442.88,-168 442.88,-168 442.88,-156 442.88,-156 442.88,-150 448.88,-144 454.88,-144 454.88,-144 485.12,-144 485.12,-144 491.12,-144 497.12,-150 497.12,-156 497.12,-156 497.12,-168 497.12,-168 497.12,-174 491.12,-180 485.12,-180"/>
<text text-anchor="middle" x="470" y="-158.88" font-family="sans" font-size="10.00">cleanup</text>
</g>
<!-- 3&#45;&gt;34 -->
<g id="edge50" class="edge">
<title>3&#45;&gt;34</title>
<path fill="none" stroke="grey" stroke-width="2" d="M437.41,-503.27C429.5,-476.6 416,-424.42 416,-379 416,-379 416,-379 416,-305 416,-263.69 436.21,-219.77 451.91,-191.91"/>
<polygon fill="grey" stroke="grey" stroke-width="2" points="454.73,-194.01 456.76,-183.61 448.69,-190.48 454.73,-194.01"/>
</g>
<!-- 4 -->
<g id="node5" class="node">
<title>4</title>
<path fill="none" stroke="#b6d856" stroke-width="2" d="M466.5,-612C466.5,-612 399.5,-612 399.5,-612 393.5,-612 387.5,-606 387.5,-600 387.5,-600 387.5,-588 387.5,-588 387.5,-582 393.5,-576 399.5,-576 399.5,-576 466.5,-576 466.5,-576 472.5,-576 478.5,-582 478.5,-588 478.5,-588 478.5,-600 478.5,-600 478.5,-606 472.5,-612 466.5,-612"/>
<text text-anchor="middle" x="433" y="-590.88" font-family="sans" font-size="10.00">align_sort_bam</text>
</g>
<!-- 4&#45;&gt;3 -->
<g id="edge19" class="edge">
<title>4&#45;&gt;3</title>
<path fill="none" stroke="grey" stroke-width="2" d="M435.52,-575.34C436.46,-568.75 437.56,-561.08 438.62,-553.67"/>
<polygon fill="grey" stroke="grey" stroke-width="2" points="442.07,-554.29 440.01,-543.9 435.14,-553.3 442.07,-554.29"/>
</g>
<!-- 4&#45;&gt;34 -->
<g id="edge47" class="edge">
<title>4&#45;&gt;34</title>
<path fill="none" stroke="grey" stroke-width="2" d="M418.48,-575.38C411.03,-565.52 402.42,-552.69 397,-540 381.12,-502.8 378,-491.45 378,-451 378,-451 378,-451 378,-305 378,-258.96 412.49,-216.06 439.24,-189.72"/>
<polygon fill="grey" stroke="grey" stroke-width="2" points="441.61,-192.29 446.46,-182.87 436.8,-187.21 441.61,-192.29"/>
</g>
<!-- 5 -->
<g id="node6" class="node">
<title>5</title>
<path fill="none" stroke="#d87d56" stroke-width="2" d="M476.62,-684C476.62,-684 389.38,-684 389.38,-684 383.38,-684 377.38,-678 377.38,-672 377.38,-672 377.38,-660 377.38,-660 377.38,-654 383.38,-648 389.38,-648 389.38,-648 476.62,-648 476.62,-648 482.62,-648 488.62,-654 488.62,-660 488.62,-660 488.62,-672 488.62,-672 488.62,-678 482.62,-684 476.62,-684"/>
<text text-anchor="middle" x="433" y="-669.25" font-family="sans" font-size="10.00">bwa_index</text>
<text text-anchor="middle" x="433" y="-656.5" font-family="sans" font-size="10.00">sample: assembly2</text>
</g>
<!-- 5&#45;&gt;4 -->
<g id="edge20" class="edge">
<title>5&#45;&gt;4</title>
<path fill="none" stroke="grey" stroke-width="2" d="M433,-647.34C433,-640.75 433,-633.08 433,-625.67"/>
<polygon fill="grey" stroke="grey" stroke-width="2" points="436.5,-625.93 433,-615.93 429.5,-625.93 436.5,-625.93"/>
</g>
<!-- 6 -->
<g id="node7" class="node">
<title>6</title>
<path fill="none" stroke="#8fd856" stroke-width="2" d="M42,-252C42,-252 12,-252 12,-252 6,-252 0,-246 0,-240 0,-240 0,-228 0,-228 0,-222 6,-216 12,-216 12,-216 42,-216 42,-216 48,-216 54,-222 54,-228 54,-228 54,-240 54,-240 54,-246 48,-252 42,-252"/>
<text text-anchor="middle" x="27" y="-230.88" font-family="sans" font-size="10.00">hic_qc</text>
</g>
<!-- 6&#45;&gt;0 -->
<g id="edge2" class="edge">
<title>6&#45;&gt;0</title>
<path fill="none" stroke="grey" stroke-width="2" d="M25.56,-215.14C23.91,-181.36 25.78,-108.28 68,-72 105.57,-39.72 447.05,-24.64 565.65,-20.34"/>
<polygon fill="grey" stroke="grey" stroke-width="2" points="565.44,-23.85 575.31,-20 565.19,-16.85 565.44,-23.85"/>
</g>
<!-- 7 -->
<g id="node8" class="node">
<title>7</title>
<path fill="none" stroke="#56d8b9" stroke-width="2" d="M110.5,-468C110.5,-468 37.5,-468 37.5,-468 31.5,-468 25.5,-462 25.5,-456 25.5,-456 25.5,-444 25.5,-444 25.5,-438 31.5,-432 37.5,-432 37.5,-432 110.5,-432 110.5,-432 116.5,-432 122.5,-438 122.5,-444 122.5,-444 122.5,-456 122.5,-456 122.5,-462 116.5,-468 110.5,-468"/>
<text text-anchor="middle" x="74" y="-446.88" font-family="sans" font-size="10.00">mark_duplicates</text>
</g>
<!-- 7&#45;&gt;6 -->
<g id="edge21" class="edge">
<title>7&#45;&gt;6</title>
<path fill="none" stroke="grey" stroke-width="2" d="M70.07,-431.12C62.04,-394.54 43.64,-310.77 33.69,-265.45"/>
<polygon fill="grey" stroke="grey" stroke-width="2" points="37.16,-264.95 31.6,-255.93 30.32,-266.45 37.16,-264.95"/>
</g>
<!-- 18 -->
<g id="node19" class="node">
<title>18</title>
<path fill="none" stroke="#68d856" stroke-width="2" d="M147.12,-396C147.12,-396 116.88,-396 116.88,-396 110.88,-396 104.88,-390 104.88,-384 104.88,-384 104.88,-372 104.88,-372 104.88,-366 110.88,-360 116.88,-360 116.88,-360 147.12,-360 147.12,-360 153.12,-360 159.12,-366 159.12,-372 159.12,-372 159.12,-384 159.12,-384 159.12,-390 153.12,-396 147.12,-396"/>
<text text-anchor="middle" x="132" y="-374.88" font-family="sans" font-size="10.00">scaffold</text>
</g>
<!-- 7&#45;&gt;18 -->
<g id="edge31" class="edge">
<title>7&#45;&gt;18</title>
<path fill="none" stroke="grey" stroke-width="2" d="M88.64,-431.34C94.77,-423.93 102.05,-415.14 108.88,-406.9"/>
<polygon fill="grey" stroke="grey" stroke-width="2" points="111.55,-409.17 115.24,-399.23 106.16,-404.7 111.55,-409.17"/>
</g>
<!-- 8 -->
<g id="node9" class="node">
<title>8</title>
<path fill="none" stroke="#56d0d8" stroke-width="2" d="M300.25,-540C300.25,-540 249.75,-540 249.75,-540 243.75,-540 237.75,-534 237.75,-528 237.75,-528 237.75,-516 237.75,-516 237.75,-510 243.75,-504 249.75,-504 249.75,-504 300.25,-504 300.25,-504 306.25,-504 312.25,-510 312.25,-516 312.25,-516 312.25,-528 312.25,-528 312.25,-534 306.25,-540 300.25,-540"/>
<text text-anchor="middle" x="275" y="-518.88" font-family="sans" font-size="10.00">merge_bam</text>
</g>
<!-- 8&#45;&gt;7 -->
<g id="edge22" class="edge">
<title>8&#45;&gt;7</title>
<path fill="none" stroke="grey" stroke-width="2" d="M237.19,-507.83C208.53,-497.85 168.54,-483.92 135.32,-472.36"/>
<polygon fill="grey" stroke="grey" stroke-width="2" points="136.88,-469.19 126.28,-469.21 134.57,-475.8 136.88,-469.19"/>
</g>
<!-- 8&#45;&gt;34 -->
<g id="edge51" class="edge">
<title>8&#45;&gt;34</title>
<path fill="none" stroke="grey" stroke-width="2" d="M280.59,-503.27C288.5,-476.6 302,-424.42 302,-379 302,-379 302,-379 302,-305 302,-264.03 298.35,-246.23 326,-216 340.27,-200.39 392.24,-183.76 429.64,-173.37"/>
<polygon fill="grey" stroke="grey" stroke-width="2" points="430.53,-176.76 439.26,-170.76 428.7,-170 430.53,-176.76"/>
</g>
<!-- 9 -->
<g id="node10" class="node">
<title>9</title>
<path fill="none" stroke="#b6d856" stroke-width="2" d="M327.5,-612C327.5,-612 260.5,-612 260.5,-612 254.5,-612 248.5,-606 248.5,-600 248.5,-600 248.5,-588 248.5,-588 248.5,-582 254.5,-576 260.5,-576 260.5,-576 327.5,-576 327.5,-576 333.5,-576 339.5,-582 339.5,-588 339.5,-588 339.5,-600 339.5,-600 339.5,-606 333.5,-612 327.5,-612"/>
<text text-anchor="middle" x="294" y="-590.88" font-family="sans" font-size="10.00">align_sort_bam</text>
</g>
<!-- 9&#45;&gt;8 -->
<g id="edge23" class="edge">
<title>9&#45;&gt;8</title>
<path fill="none" stroke="grey" stroke-width="2" d="M289.21,-575.34C287.4,-568.67 285.28,-560.89 283.25,-553.39"/>
<polygon fill="grey" stroke="grey" stroke-width="2" points="286.65,-552.56 280.65,-543.82 279.89,-554.39 286.65,-552.56"/>
</g>
<!-- 9&#45;&gt;34 -->
<g id="edge48" class="edge">
<title>9&#45;&gt;34</title>
<path fill="none" stroke="grey" stroke-width="2" d="M304.45,-575.37C310.04,-565.29 316.65,-552.26 321,-540 334.52,-501.88 340,-491.45 340,-451 340,-451 340,-451 340,-305 340,-250.39 392.94,-207.65 431.26,-183.87"/>
<polygon fill="grey" stroke="grey" stroke-width="2" points="432.72,-187.07 439.51,-178.94 429.13,-181.06 432.72,-187.07"/>
</g>
<!-- 10 -->
<g id="node11" class="node">
<title>10</title>
<path fill="none" stroke="#d87d56" stroke-width="2" d="M337.62,-684C337.62,-684 250.38,-684 250.38,-684 244.38,-684 238.38,-678 238.38,-672 238.38,-672 238.38,-660 238.38,-660 238.38,-654 244.38,-648 250.38,-648 250.38,-648 337.62,-648 337.62,-648 343.62,-648 349.62,-654 349.62,-660 349.62,-660 349.62,-672 349.62,-672 349.62,-678 343.62,-684 337.62,-684"/>
<text text-anchor="middle" x="294" y="-669.25" font-family="sans" font-size="10.00">bwa_index</text>
<text text-anchor="middle" x="294" y="-656.5" font-family="sans" font-size="10.00">sample: assembly3</text>
</g>
<!-- 10&#45;&gt;9 -->
<g id="edge24" class="edge">
<title>10&#45;&gt;9</title>
<path fill="none" stroke="grey" stroke-width="2" d="M294,-647.34C294,-640.75 294,-633.08 294,-625.67"/>
<polygon fill="grey" stroke="grey" stroke-width="2" points="297.5,-625.93 294,-615.93 290.5,-625.93 297.5,-625.93"/>
</g>
<!-- 11 -->
<g id="node12" class="node">
<title>11</title>
<path fill="none" stroke="#8fd856" stroke-width="2" d="M1083,-108C1083,-108 1053,-108 1053,-108 1047,-108 1041,-102 1041,-96 1041,-96 1041,-84 1041,-84 1041,-78 1047,-72 1053,-72 1053,-72 1083,-72 1083,-72 1089,-72 1095,-78 1095,-84 1095,-84 1095,-96 1095,-96 1095,-102 1089,-108 1083,-108"/>
<text text-anchor="middle" x="1068" y="-86.88" font-family="sans" font-size="10.00">hic_qc</text>
</g>
<!-- 11&#45;&gt;0 -->
<g id="edge3" class="edge">
<title>11&#45;&gt;0</title>
<path fill="none" stroke="grey" stroke-width="2" d="M1040.11,-76.28C1035.79,-74.64 1031.32,-73.15 1027,-72 890.47,-35.8 722.29,-24.1 646.46,-20.5"/>
<polygon fill="grey" stroke="grey" stroke-width="2" points="646.99,-17.02 636.85,-20.07 646.68,-24.01 646.99,-17.02"/>
</g>
<!-- 12 -->
<g id="node13" class="node">
<title>12</title>
<path fill="none" stroke="#56d8b9" stroke-width="2" d="M1032.5,-468C1032.5,-468 959.5,-468 959.5,-468 953.5,-468 947.5,-462 947.5,-456 947.5,-456 947.5,-444 947.5,-444 947.5,-438 953.5,-432 959.5,-432 959.5,-432 1032.5,-432 1032.5,-432 1038.5,-432 1044.5,-438 1044.5,-444 1044.5,-444 1044.5,-456 1044.5,-456 1044.5,-462 1038.5,-468 1032.5,-468"/>
<text text-anchor="middle" x="996" y="-446.88" font-family="sans" font-size="10.00">mark_duplicates</text>
</g>
<!-- 12&#45;&gt;11 -->
<g id="edge25" class="edge">
<title>12&#45;&gt;11</title>
<path fill="none" stroke="grey" stroke-width="2" d="M1009.67,-431.29C1028.2,-405.47 1059,-355.28 1059,-307 1059,-307 1059,-307 1059,-233 1059,-194.58 1062.32,-150.42 1064.93,-121.69"/>
<polygon fill="grey" stroke="grey" stroke-width="2" points="1068.4,-122.21 1065.85,-111.92 1061.43,-121.55 1068.4,-122.21"/>
</g>
<!-- 20 -->
<g id="node21" class="node">
<title>20</title>
<path fill="none" stroke="#68d856" stroke-width="2" d="M957.12,-396C957.12,-396 926.88,-396 926.88,-396 920.88,-396 914.88,-390 914.88,-384 914.88,-384 914.88,-372 914.88,-372 914.88,-366 920.88,-360 926.88,-360 926.88,-360 957.12,-360 957.12,-360 963.12,-360 969.12,-366 969.12,-372 969.12,-372 969.12,-384 969.12,-384 969.12,-390 963.12,-396 957.12,-396"/>
<text text-anchor="middle" x="942" y="-374.88" font-family="sans" font-size="10.00">scaffold</text>
</g>
<!-- 12&#45;&gt;20 -->
<g id="edge33" class="edge">
<title>12&#45;&gt;20</title>
<path fill="none" stroke="grey" stroke-width="2" d="M982.37,-431.34C976.73,-424.01 970.03,-415.34 963.74,-407.18"/>
<polygon fill="grey" stroke="grey" stroke-width="2" points="966.54,-405.08 957.66,-399.3 961,-409.35 966.54,-405.08"/>
</g>
<!-- 13 -->
<g id="node14" class="node">
<title>13</title>
<path fill="none" stroke="#56d0d8" stroke-width="2" d="M598.25,-540C598.25,-540 547.75,-540 547.75,-540 541.75,-540 535.75,-534 535.75,-528 535.75,-528 535.75,-516 535.75,-516 535.75,-510 541.75,-504 547.75,-504 547.75,-504 598.25,-504 598.25,-504 604.25,-504 610.25,-510 610.25,-516 610.25,-516 610.25,-528 610.25,-528 610.25,-534 604.25,-540 598.25,-540"/>
<text text-anchor="middle" x="573" y="-518.88" font-family="sans" font-size="10.00">merge_bam</text>
</g>
<!-- 13&#45;&gt;12 -->
<g id="edge26" class="edge">
<title>13&#45;&gt;12</title>
<path fill="none" stroke="grey" stroke-width="2" d="M611,-517.35C675.64,-510.74 811.25,-495.15 934.08,-468.93"/>
<polygon fill="grey" stroke="grey" stroke-width="2" points="934.7,-472.38 943.73,-466.83 933.21,-465.54 934.7,-472.38"/>
</g>
<!-- 13&#45;&gt;34 -->
<g id="edge52" class="edge">
<title>13&#45;&gt;34</title>
<path fill="none" stroke="grey" stroke-width="2" d="M564.43,-503.12C559.77,-492.97 554.13,-479.94 550,-468 515.94,-369.51 488.3,-248.84 476.36,-193.44"/>
<polygon fill="grey" stroke="grey" stroke-width="2" points="479.81,-192.83 474.3,-183.78 472.96,-194.29 479.81,-192.83"/>
</g>
<!-- 14 -->
<g id="node15" class="node">
<title>14</title>
<path fill="none" stroke="#b6d856" stroke-width="2" d="M600.5,-612C600.5,-612 533.5,-612 533.5,-612 527.5,-612 521.5,-606 521.5,-600 521.5,-600 521.5,-588 521.5,-588 521.5,-582 527.5,-576 533.5,-576 533.5,-576 600.5,-576 600.5,-576 606.5,-576 612.5,-582 612.5,-588 612.5,-588 612.5,-600 612.5,-600 612.5,-606 606.5,-612 600.5,-612"/>
<text text-anchor="middle" x="567" y="-590.88" font-family="sans" font-size="10.00">align_sort_bam</text>
</g>
<!-- 14&#45;&gt;13 -->
<g id="edge27" class="edge">
<title>14&#45;&gt;13</title>
<path fill="none" stroke="grey" stroke-width="2" d="M568.51,-575.34C569.08,-568.75 569.74,-561.08 570.37,-553.67"/>
<polygon fill="grey" stroke="grey" stroke-width="2" points="573.84,-554.18 571.21,-543.92 566.87,-553.58 573.84,-554.18"/>
</g>
<!-- 14&#45;&gt;34 -->
<g id="edge49" class="edge">
<title>14&#45;&gt;34</title>
<path fill="none" stroke="grey" stroke-width="2" d="M550.42,-575.14C542.23,-565.42 532.87,-552.78 527,-540 496.45,-473.45 492,-452.23 492,-379 492,-379 492,-379 492,-305 492,-266.02 483.8,-221.72 477.42,-193.12"/>
<polygon fill="grey" stroke="grey" stroke-width="2" points="480.91,-192.7 475.24,-183.74 474.09,-194.28 480.91,-192.7"/>
</g>
<!-- 15 -->
<g id="node16" class="node">
<title>15</title>
<path fill="none" stroke="#d87d56" stroke-width="2" d="M610.62,-684C610.62,-684 523.38,-684 523.38,-684 517.38,-684 511.38,-678 511.38,-672 511.38,-672 511.38,-660 511.38,-660 511.38,-654 517.38,-648 523.38,-648 523.38,-648 610.62,-648 610.62,-648 616.62,-648 622.62,-654 622.62,-660 622.62,-660 622.62,-672 622.62,-672 622.62,-678 616.62,-684 610.62,-684"/>
<text text-anchor="middle" x="567" y="-669.25" font-family="sans" font-size="10.00">bwa_index</text>
<text text-anchor="middle" x="567" y="-656.5" font-family="sans" font-size="10.00">sample: assembly1</text>
</g>
<!-- 15&#45;&gt;14 -->
<g id="edge28" class="edge">
<title>15&#45;&gt;14</title>
<path fill="none" stroke="grey" stroke-width="2" d="M567,-647.34C567,-640.75 567,-633.08 567,-625.67"/>
<polygon fill="grey" stroke="grey" stroke-width="2" points="570.5,-625.93 567,-615.93 563.5,-625.93 570.5,-625.93"/>
</g>
<!-- 16&#45;&gt;0 -->
<g id="edge4" class="edge">
<title>16&#45;&gt;0</title>
<path fill="none" stroke="grey" stroke-width="2" d="M741.31,-359.06C752,-349.92 763.27,-337.83 769,-324 779.67,-298.24 764.58,-75.43 762,-72 735.16,-36.4 683.18,-24.5 646.62,-20.64"/>
<polygon fill="grey" stroke="grey" stroke-width="2" points="647.2,-17.18 636.94,-19.81 646.6,-24.15 647.2,-17.18"/>
</g>
<!-- 23 -->
<g id="node24" class="node">
<title>23</title>
<path fill="none" stroke="#d8a456" stroke-width="2" d="M747.75,-324C747.75,-324 658.25,-324 658.25,-324 652.25,-324 646.25,-318 646.25,-312 646.25,-312 646.25,-300 646.25,-300 646.25,-294 652.25,-288 658.25,-288 658.25,-288 747.75,-288 747.75,-288 753.75,-288 759.75,-294 759.75,-300 759.75,-300 759.75,-312 759.75,-312 759.75,-318 753.75,-324 747.75,-324"/>
<text text-anchor="middle" x="703" y="-302.88" font-family="sans" font-size="10.00">realign_to_scaffolds</text>
</g>
<!-- 16&#45;&gt;23 -->
<g id="edge36" class="edge">
<title>16&#45;&gt;23</title>
<path fill="none" stroke="grey" stroke-width="2" d="M712.72,-359.34C711.5,-352.75 710.07,-345.08 708.7,-337.67"/>
<polygon fill="grey" stroke="grey" stroke-width="2" points="712.14,-337.07 706.88,-327.88 705.26,-338.35 712.14,-337.07"/>
</g>
<!-- 17 -->
<g id="node18" class="node">
<title>17</title>
<path fill="none" stroke="#d8cb56" stroke-width="2" d="M772.62,-468C772.62,-468 685.38,-468 685.38,-468 679.38,-468 673.38,-462 673.38,-456 673.38,-456 673.38,-444 673.38,-444 673.38,-438 679.38,-432 685.38,-432 685.38,-432 772.62,-432 772.62,-432 778.62,-432 784.62,-438 784.62,-444 784.62,-444 784.62,-456 784.62,-456 784.62,-462 778.62,-468 772.62,-468"/>
<text text-anchor="middle" x="729" y="-453.25" font-family="sans" font-size="10.00">samtools_index</text>
<text text-anchor="middle" x="729" y="-440.5" font-family="sans" font-size="10.00">sample: assembly2</text>
</g>
<!-- 17&#45;&gt;16 -->
<g id="edge30" class="edge">
<title>17&#45;&gt;16</title>
<path fill="none" stroke="grey" stroke-width="2" d="M725.72,-431.34C724.5,-424.75 723.07,-417.08 721.7,-409.67"/>
<polygon fill="grey" stroke="grey" stroke-width="2" points="725.14,-409.07 719.88,-399.88 718.26,-410.35 725.14,-409.07"/>
</g>
<!-- 18&#45;&gt;0 -->
<g id="edge5" class="edge">
<title>18&#45;&gt;0</title>
<path fill="none" stroke="grey" stroke-width="2" d="M121.4,-359.32C106.72,-333.14 82,-282.05 82,-235 82,-235 82,-235 82,-161 82,-60.95 442.34,-29.19 565.39,-21.26"/>
<polygon fill="grey" stroke="grey" stroke-width="2" points="565.41,-24.76 575.18,-20.65 564.98,-17.77 565.41,-24.76"/>
</g>
<!-- 25 -->
<g id="node26" class="node">
<title>25</title>
<path fill="none" stroke="#d8a456" stroke-width="2" d="M217.75,-324C217.75,-324 128.25,-324 128.25,-324 122.25,-324 116.25,-318 116.25,-312 116.25,-312 116.25,-300 116.25,-300 116.25,-294 122.25,-288 128.25,-288 128.25,-288 217.75,-288 217.75,-288 223.75,-288 229.75,-294 229.75,-300 229.75,-300 229.75,-312 229.75,-312 229.75,-318 223.75,-324 217.75,-324"/>
<text text-anchor="middle" x="173" y="-302.88" font-family="sans" font-size="10.00">realign_to_scaffolds</text>
</g>
<!-- 18&#45;&gt;25 -->
<g id="edge38" class="edge">
<title>18&#45;&gt;25</title>
<path fill="none" stroke="grey" stroke-width="2" d="M142.35,-359.34C146.49,-352.26 151.37,-343.92 156.01,-336"/>
<polygon fill="grey" stroke="grey" stroke-width="2" points="158.95,-337.91 160.98,-327.51 152.91,-334.37 158.95,-337.91"/>
</g>
<!-- 19 -->
<g id="node20" class="node">
<title>19</title>
<path fill="none" stroke="#d8cb56" stroke-width="2" d="M239.62,-468C239.62,-468 152.38,-468 152.38,-468 146.38,-468 140.38,-462 140.38,-456 140.38,-456 140.38,-444 140.38,-444 140.38,-438 146.38,-432 152.38,-432 152.38,-432 239.62,-432 239.62,-432 245.62,-432 251.62,-438 251.62,-444 251.62,-444 251.62,-456 251.62,-456 251.62,-462 245.62,-468 239.62,-468"/>
<text text-anchor="middle" x="196" y="-453.25" font-family="sans" font-size="10.00">samtools_index</text>
<text text-anchor="middle" x="196" y="-440.5" font-family="sans" font-size="10.00">sample: assembly3</text>
</g>
<!-- 19&#45;&gt;18 -->
<g id="edge32" class="edge">
<title>19&#45;&gt;18</title>
<path fill="none" stroke="grey" stroke-width="2" d="M179.85,-431.34C172.93,-423.77 164.69,-414.75 157.01,-406.35"/>
<polygon fill="grey" stroke="grey" stroke-width="2" points="159.74,-404.15 150.41,-399.14 154.57,-408.88 159.74,-404.15"/>
</g>
<!-- 20&#45;&gt;0 -->
<g id="edge6" class="edge">
<title>20&#45;&gt;0</title>
<path fill="none" stroke="grey" stroke-width="2" d="M957.76,-359.15C978.67,-333.55 1013,-284.06 1013,-235 1013,-235 1013,-235 1013,-161 1013,-118.16 1009.85,-98.25 976,-72 925.31,-32.69 732.23,-22.49 646.93,-19.88"/>
<polygon fill="grey" stroke="grey" stroke-width="2" points="647.09,-16.38 636.99,-19.6 646.89,-23.38 647.09,-16.38"/>
</g>
<!-- 27 -->
<g id="node28" class="node">
<title>27</title>
<path fill="none" stroke="#d8a456" stroke-width="2" d="M932.75,-324C932.75,-324 843.25,-324 843.25,-324 837.25,-324 831.25,-318 831.25,-312 831.25,-312 831.25,-300 831.25,-300 831.25,-294 837.25,-288 843.25,-288 843.25,-288 932.75,-288 932.75,-288 938.75,-288 944.75,-294 944.75,-300 944.75,-300 944.75,-312 944.75,-312 944.75,-318 938.75,-324 932.75,-324"/>
<text text-anchor="middle" x="888" y="-302.88" font-family="sans" font-size="10.00">realign_to_scaffolds</text>
</g>
<!-- 20&#45;&gt;27 -->
<g id="edge40" class="edge">
<title>20&#45;&gt;27</title>
<path fill="none" stroke="grey" stroke-width="2" d="M928.37,-359.34C922.73,-352.01 916.03,-343.34 909.74,-335.18"/>
<polygon fill="grey" stroke="grey" stroke-width="2" points="912.54,-333.08 903.66,-327.3 907,-337.35 912.54,-333.08"/>
</g>
<!-- 21 -->
<g id="node22" class="node">
<title>21</title>
<path fill="none" stroke="#d8cb56" stroke-width="2" d="M917.62,-468C917.62,-468 830.38,-468 830.38,-468 824.38,-468 818.38,-462 818.38,-456 818.38,-456 818.38,-444 818.38,-444 818.38,-438 824.38,-432 830.38,-432 830.38,-432 917.62,-432 917.62,-432 923.62,-432 929.62,-438 929.62,-444 929.62,-444 929.62,-456 929.62,-456 929.62,-462 923.62,-468 917.62,-468"/>
<text text-anchor="middle" x="874" y="-453.25" font-family="sans" font-size="10.00">samtools_index</text>
<text text-anchor="middle" x="874" y="-440.5" font-family="sans" font-size="10.00">sample: assembly1</text>
</g>
<!-- 21&#45;&gt;20 -->
<g id="edge34" class="edge">
<title>21&#45;&gt;20</title>
<path fill="none" stroke="grey" stroke-width="2" d="M891.16,-431.34C898.59,-423.69 907.46,-414.56 915.69,-406.08"/>
<polygon fill="grey" stroke="grey" stroke-width="2" points="918.04,-408.68 922.5,-399.07 913.02,-403.81 918.04,-408.68"/>
</g>
<!-- 22 -->
<g id="node23" class="node">
<title>22</title>
<path fill="none" stroke="#56d892" stroke-width="2" d="M747.75,-252C747.75,-252 646.25,-252 646.25,-252 640.25,-252 634.25,-246 634.25,-240 634.25,-240 634.25,-228 634.25,-228 634.25,-222 640.25,-216 646.25,-216 646.25,-216 747.75,-216 747.75,-216 753.75,-216 759.75,-222 759.75,-228 759.75,-228 759.75,-240 759.75,-240 759.75,-246 753.75,-252 747.75,-252"/>
<text text-anchor="middle" x="697" y="-230.88" font-family="sans" font-size="10.00">merge_realigned_bam</text>
</g>
<!-- 22&#45;&gt;0 -->
<g id="edge7" class="edge">
<title>22&#45;&gt;0</title>
<path fill="none" stroke="grey" stroke-width="2" d="M677.86,-215.23C668.23,-205.53 656.96,-192.88 649,-180 623.74,-139.11 613.16,-83.5 608.84,-49.49"/>
<polygon fill="grey" stroke="grey" stroke-width="2" points="612.34,-49.3 607.73,-39.76 605.39,-50.09 612.34,-49.3"/>
</g>
<!-- 28 -->
<g id="node29" class="node">
<title>28</title>
<path fill="none" stroke="#567bd8" stroke-width="2" d="M724.12,-180C724.12,-180 669.88,-180 669.88,-180 663.88,-180 657.88,-174 657.88,-168 657.88,-168 657.88,-156 657.88,-156 657.88,-150 663.88,-144 669.88,-144 669.88,-144 724.12,-144 724.12,-144 730.12,-144 736.12,-150 736.12,-156 736.12,-156 736.12,-168 736.12,-168 736.12,-174 730.12,-180 724.12,-180"/>
<text text-anchor="middle" x="697" y="-158.88" font-family="sans" font-size="10.00">pretext_map</text>
</g>
<!-- 22&#45;&gt;28 -->
<g id="edge41" class="edge">
<title>22&#45;&gt;28</title>
<path fill="none" stroke="grey" stroke-width="2" d="M697,-215.34C697,-208.75 697,-201.08 697,-193.67"/>
<polygon fill="grey" stroke="grey" stroke-width="2" points="700.5,-193.93 697,-183.93 693.5,-193.93 700.5,-193.93"/>
</g>
<!-- 22&#45;&gt;34 -->
<g id="edge56" class="edge">
<title>22&#45;&gt;34</title>
<path fill="none" stroke="grey" stroke-width="2" d="M638.84,-215.06C598.59,-202.65 546.06,-186.45 510.35,-175.44"/>
<polygon fill="grey" stroke="grey" stroke-width="2" points="511.49,-172.13 500.9,-172.53 509.43,-178.82 511.49,-172.13"/>
</g>
<!-- 23&#45;&gt;22 -->
<g id="edge35" class="edge">
<title>23&#45;&gt;22</title>
<path fill="none" stroke="grey" stroke-width="2" d="M701.49,-287.34C700.92,-280.75 700.26,-273.08 699.63,-265.67"/>
<polygon fill="grey" stroke="grey" stroke-width="2" points="703.13,-265.58 698.79,-255.92 696.16,-266.18 703.13,-265.58"/>
</g>
<!-- 23&#45;&gt;34 -->
<g id="edge53" class="edge">
<title>23&#45;&gt;34</title>
<path fill="none" stroke="grey" stroke-width="2" d="M645.4,-287.58C610.41,-276.42 569.58,-262.16 554,-252 528.93,-235.64 506.01,-210.33 490.46,-190.87"/>
<polygon fill="grey" stroke="grey" stroke-width="2" points="493.37,-188.91 484.48,-183.15 487.84,-193.2 493.37,-188.91"/>
</g>
<!-- 24 -->
<g id="node25" class="node">
<title>24</title>
<path fill="none" stroke="#56d892" stroke-width="2" d="M223.75,-252C223.75,-252 122.25,-252 122.25,-252 116.25,-252 110.25,-246 110.25,-240 110.25,-240 110.25,-228 110.25,-228 110.25,-222 116.25,-216 122.25,-216 122.25,-216 223.75,-216 223.75,-216 229.75,-216 235.75,-222 235.75,-228 235.75,-228 235.75,-240 235.75,-240 235.75,-246 229.75,-252 223.75,-252"/>
<text text-anchor="middle" x="173" y="-230.88" font-family="sans" font-size="10.00">merge_realigned_bam</text>
</g>
<!-- 24&#45;&gt;0 -->
<g id="edge8" class="edge">
<title>24&#45;&gt;0</title>
<path fill="none" stroke="grey" stroke-width="2" d="M236.45,-215.93C277.67,-204.42 327.27,-189.62 347,-180 422.14,-143.36 429.28,-114.95 501,-72 522.14,-59.34 546.67,-46.85 566.71,-37.17"/>
<polygon fill="grey" stroke="grey" stroke-width="2" points="567.97,-40.44 575.49,-32.98 564.96,-34.12 567.97,-40.44"/>
</g>
<!-- 29 -->
<g id="node30" class="node">
<title>29</title>
<path fill="none" stroke="#567bd8" stroke-width="2" d="M326.12,-180C326.12,-180 271.88,-180 271.88,-180 265.88,-180 259.88,-174 259.88,-168 259.88,-168 259.88,-156 259.88,-156 259.88,-150 265.88,-144 271.88,-144 271.88,-144 326.12,-144 326.12,-144 332.12,-144 338.12,-150 338.12,-156 338.12,-156 338.12,-168 338.12,-168 338.12,-174 332.12,-180 326.12,-180"/>
<text text-anchor="middle" x="299" y="-158.88" font-family="sans" font-size="10.00">pretext_map</text>
</g>
<!-- 24&#45;&gt;29 -->
<g id="edge42" class="edge">
<title>24&#45;&gt;29</title>
<path fill="none" stroke="grey" stroke-width="2" d="M205.12,-215.15C220.52,-206.6 239.2,-196.22 255.82,-186.99"/>
<polygon fill="grey" stroke="grey" stroke-width="2" points="257.25,-190.2 264.29,-182.28 253.85,-184.08 257.25,-190.2"/>
</g>
<!-- 24&#45;&gt;34 -->
<g id="edge57" class="edge">
<title>24&#45;&gt;34</title>
<path fill="none" stroke="grey" stroke-width="2" d="M236.43,-218.9C241.02,-217.91 245.58,-216.93 250,-216 329.4,-199.25 351.37,-203.65 429,-180 429.27,-179.92 429.54,-179.84 429.8,-179.75"/>
<polygon fill="grey" stroke="grey" stroke-width="2" points="430.91,-183.07 439.18,-176.45 428.58,-176.47 430.91,-183.07"/>
</g>
<!-- 25&#45;&gt;24 -->
<g id="edge37" class="edge">
<title>25&#45;&gt;24</title>
<path fill="none" stroke="grey" stroke-width="2" d="M173,-287.34C173,-280.75 173,-273.08 173,-265.67"/>
<polygon fill="grey" stroke="grey" stroke-width="2" points="176.5,-265.93 173,-255.93 169.5,-265.93 176.5,-265.93"/>
</g>
<!-- 25&#45;&gt;34 -->
<g id="edge54" class="edge">
<title>25&#45;&gt;34</title>
<path fill="none" stroke="grey" stroke-width="2" d="M197.95,-287.22C211.94,-277.11 229.62,-264.08 245,-252 264.6,-236.6 265.82,-227.37 288,-216 345.56,-186.51 367.64,-200.44 429,-180 429.27,-179.91 429.53,-179.82 429.8,-179.73"/>
<polygon fill="grey" stroke="grey" stroke-width="2" points="430.96,-183.03 439.13,-176.29 428.54,-176.47 430.96,-183.03"/>
</g>
<!-- 26 -->
<g id="node27" class="node">
<title>26</title>
<path fill="none" stroke="#56d892" stroke-width="2" d="M938.75,-252C938.75,-252 837.25,-252 837.25,-252 831.25,-252 825.25,-246 825.25,-240 825.25,-240 825.25,-228 825.25,-228 825.25,-222 831.25,-216 837.25,-216 837.25,-216 938.75,-216 938.75,-216 944.75,-216 950.75,-222 950.75,-228 950.75,-228 950.75,-240 950.75,-240 950.75,-246 944.75,-252 938.75,-252"/>
<text text-anchor="middle" x="888" y="-230.88" font-family="sans" font-size="10.00">merge_realigned_bam</text>
</g>
<!-- 26&#45;&gt;0 -->
<g id="edge9" class="edge">
<title>26&#45;&gt;0</title>
<path fill="none" stroke="grey" stroke-width="2" d="M906.72,-215.13C937.92,-183.22 993.59,-115.71 956,-72 916.52,-26.1 730.49,-19.46 646.87,-18.83"/>
<polygon fill="grey" stroke="grey" stroke-width="2" points="646.95,-15.33 636.93,-18.79 646.92,-22.33 646.95,-15.33"/>
</g>
<!-- 30 -->
<g id="node31" class="node">
<title>30</title>
<path fill="none" stroke="#567bd8" stroke-width="2" d="M915.12,-180C915.12,-180 860.88,-180 860.88,-180 854.88,-180 848.88,-174 848.88,-168 848.88,-168 848.88,-156 848.88,-156 848.88,-150 854.88,-144 860.88,-144 860.88,-144 915.12,-144 915.12,-144 921.12,-144 927.12,-150 927.12,-156 927.12,-156 927.12,-168 927.12,-168 927.12,-174 921.12,-180 915.12,-180"/>
<text text-anchor="middle" x="888" y="-158.88" font-family="sans" font-size="10.00">pretext_map</text>
</g>
<!-- 26&#45;&gt;30 -->
<g id="edge43" class="edge">
<title>26&#45;&gt;30</title>
<path fill="none" stroke="grey" stroke-width="2" d="M888,-215.34C888,-208.75 888,-201.08 888,-193.67"/>
<polygon fill="grey" stroke="grey" stroke-width="2" points="891.5,-193.93 888,-183.93 884.5,-193.93 891.5,-193.93"/>
</g>
<!-- 26&#45;&gt;34 -->
<g id="edge58" class="edge">
<title>26&#45;&gt;34</title>
<path fill="none" stroke="grey" stroke-width="2" d="M824.51,-222.37C737.44,-207.79 583.46,-182 510.5,-169.78"/>
<polygon fill="grey" stroke="grey" stroke-width="2" points="511.29,-166.37 500.84,-168.17 510.13,-173.27 511.29,-166.37"/>
</g>
<!-- 27&#45;&gt;26 -->
<g id="edge39" class="edge">
<title>27&#45;&gt;26</title>
<path fill="none" stroke="grey" stroke-width="2" d="M888,-287.34C888,-280.75 888,-273.08 888,-265.67"/>
<polygon fill="grey" stroke="grey" stroke-width="2" points="891.5,-265.93 888,-255.93 884.5,-265.93 891.5,-265.93"/>
</g>
<!-- 27&#45;&gt;34 -->
<g id="edge55" class="edge">
<title>27&#45;&gt;34</title>
<path fill="none" stroke="grey" stroke-width="2" d="M830.28,-295.6C764.65,-284.52 661.83,-265.87 625,-252 581.68,-235.69 536.21,-208.17 505.81,-188.04"/>
<polygon fill="grey" stroke="grey" stroke-width="2" points="508.09,-185.35 497.84,-182.68 504.18,-191.16 508.09,-185.35"/>
</g>
<!-- 28&#45;&gt;0 -->
<g id="edge10" class="edge">
<title>28&#45;&gt;0</title>
<path fill="none" stroke="grey" stroke-width="2" d="M675.69,-143.21C665.14,-133.6 652.82,-121.04 644,-108 631.66,-89.74 621.99,-66.83 615.49,-48.83"/>
<polygon fill="grey" stroke="grey" stroke-width="2" points="618.87,-47.9 612.31,-39.58 612.25,-50.18 618.87,-47.9"/>
</g>
<!-- 31 -->
<g id="node32" class="node">
<title>31</title>
<path fill="none" stroke="#56d86b" stroke-width="2" d="M741.38,-108C741.38,-108 664.62,-108 664.62,-108 658.62,-108 652.62,-102 652.62,-96 652.62,-96 652.62,-84 652.62,-84 652.62,-78 658.62,-72 664.62,-72 664.62,-72 741.38,-72 741.38,-72 747.38,-72 753.38,-78 753.38,-84 753.38,-84 753.38,-96 753.38,-96 753.38,-102 747.38,-108 741.38,-108"/>
<text text-anchor="middle" x="703" y="-86.88" font-family="sans" font-size="10.00">pretext_snapshot</text>
</g>
<!-- 28&#45;&gt;31 -->
<g id="edge44" class="edge">
<title>28&#45;&gt;31</title>
<path fill="none" stroke="grey" stroke-width="2" d="M698.51,-143.34C699.08,-136.75 699.74,-129.08 700.37,-121.67"/>
<polygon fill="grey" stroke="grey" stroke-width="2" points="703.84,-122.18 701.21,-111.92 696.87,-121.58 703.84,-122.18"/>
</g>
<!-- 29&#45;&gt;0 -->
<g id="edge11" class="edge">
<title>29&#45;&gt;0</title>
<path fill="none" stroke="grey" stroke-width="2" d="M318.92,-143.2C347.25,-117.94 396.3,-74.48 401,-72 453.93,-44.09 522.43,-30.25 565.3,-23.86"/>
<polygon fill="grey" stroke="grey" stroke-width="2" points="565.59,-27.36 575,-22.5 564.61,-20.43 565.59,-27.36"/>
</g>
<!-- 32 -->
<g id="node33" class="node">
<title>32</title>
<path fill="none" stroke="#56d86b" stroke-width="2" d="M337.38,-108C337.38,-108 260.62,-108 260.62,-108 254.62,-108 248.62,-102 248.62,-96 248.62,-96 248.62,-84 248.62,-84 248.62,-78 254.62,-72 260.62,-72 260.62,-72 337.38,-72 337.38,-72 343.38,-72 349.38,-78 349.38,-84 349.38,-84 349.38,-96 349.38,-96 349.38,-102 343.38,-108 337.38,-108"/>
<text text-anchor="middle" x="299" y="-86.88" font-family="sans" font-size="10.00">pretext_snapshot</text>
</g>
<!-- 29&#45;&gt;32 -->
<g id="edge45" class="edge">
<title>29&#45;&gt;32</title>
<path fill="none" stroke="grey" stroke-width="2" d="M299,-143.34C299,-136.75 299,-129.08 299,-121.67"/>
<polygon fill="grey" stroke="grey" stroke-width="2" points="302.5,-121.93 299,-111.93 295.5,-121.93 302.5,-121.93"/>
</g>
<!-- 30&#45;&gt;0 -->
<g id="edge12" class="edge">
<title>30&#45;&gt;0</title>
<path fill="none" stroke="grey" stroke-width="2" d="M871.43,-143.21C849.63,-120.16 812.08,-81.74 795,-72 747.93,-45.15 686.41,-31.2 646.55,-24.49"/>
<polygon fill="grey" stroke="grey" stroke-width="2" points="647.33,-21.07 636.91,-22.96 646.24,-27.99 647.33,-21.07"/>
</g>
<!-- 33 -->
<g id="node34" class="node">
<title>33</title>
<path fill="none" stroke="#56d86b" stroke-width="2" d="M935.38,-108C935.38,-108 858.62,-108 858.62,-108 852.62,-108 846.62,-102 846.62,-96 846.62,-96 846.62,-84 846.62,-84 846.62,-78 852.62,-72 858.62,-72 858.62,-72 935.38,-72 935.38,-72 941.38,-72 947.38,-78 947.38,-84 947.38,-84 947.38,-96 947.38,-96 947.38,-102 941.38,-108 935.38,-108"/>
<text text-anchor="middle" x="897" y="-86.88" font-family="sans" font-size="10.00">pretext_snapshot</text>
</g>
<!-- 30&#45;&gt;33 -->
<g id="edge46" class="edge">
<title>30&#45;&gt;33</title>
<path fill="none" stroke="grey" stroke-width="2" d="M890.27,-143.34C891.12,-136.75 892.1,-129.08 893.06,-121.67"/>
<polygon fill="grey" stroke="grey" stroke-width="2" points="896.51,-122.27 894.31,-111.9 889.57,-121.38 896.51,-122.27"/>
</g>
<!-- 31&#45;&gt;0 -->
<g id="edge13" class="edge">
<title>31&#45;&gt;0</title>
<path fill="none" stroke="grey" stroke-width="2" d="M678.27,-71.15C666.98,-63.01 653.41,-53.22 641.1,-44.33"/>
<polygon fill="grey" stroke="grey" stroke-width="2" points="643.29,-41.6 633.14,-38.58 639.2,-47.27 643.29,-41.6"/>
</g>
<!-- 32&#45;&gt;0 -->
<g id="edge14" class="edge">
<title>32&#45;&gt;0</title>
<path fill="none" stroke="grey" stroke-width="2" d="M350.3,-75.16C354.59,-74.07 358.87,-73 363,-72 433.97,-54.84 517.21,-37.23 565.54,-27.24"/>
<polygon fill="grey" stroke="grey" stroke-width="2" points="566.16,-30.69 575.25,-25.25 564.75,-23.84 566.16,-30.69"/>
</g>
<!-- 33&#45;&gt;0 -->
<g id="edge15" class="edge">
<title>33&#45;&gt;0</title>
<path fill="none" stroke="grey" stroke-width="2" d="M845.69,-75.22C841.4,-74.12 837.13,-73.03 833,-72 767.78,-55.73 691.63,-38.26 646.19,-28"/>
<polygon fill="grey" stroke="grey" stroke-width="2" points="647.15,-24.63 636.62,-25.84 645.61,-31.45 647.15,-24.63"/>
</g>
<!-- 34&#45;&gt;0 -->
<g id="edge16" class="edge">
<title>34&#45;&gt;0</title>
<path fill="none" stroke="grey" stroke-width="2" d="M480.82,-143.07C492.71,-124.19 513.06,-94.17 535,-72 544.84,-62.06 556.65,-52.49 567.78,-44.29"/>
<polygon fill="grey" stroke="grey" stroke-width="2" points="569.6,-47.29 575.71,-38.63 565.53,-41.59 569.6,-47.29"/>
</g>
</g>
</svg>
