<?xml version="1.0" encoding="UTF-8" standalone="no"?>
<!DOCTYPE svg PUBLIC "-//W3C//DTD SVG 1.1//EN"
 "http://www.w3.org/Graphics/SVG/1.1/DTD/svg11.dtd">
<!-- Generated by graphviz version 11.0.0 (20240519.1550)
 -->
<!-- Title: snakemake_dag Pages: 1 -->
<svg width="688pt" height="548pt"
 viewBox="0.00 0.00 688.28 548.00" xmlns="http://www.w3.org/2000/svg" xmlns:xlink="http://www.w3.org/1999/xlink">
<g id="graph0" class="graph" transform="scale(1 1) rotate(0) translate(4 544)">
<title>snakemake_dag</title>
<polygon fill="white" stroke="none" points="-4,4 -4,-544 684.28,-544 684.28,4 -4,4"/>
<!-- 0 -->
<g id="node1" class="node">
<title>0</title>
<path fill="none" stroke="#d85656" stroke-width="2" d="M418.28,-36C418.28,-36 388.28,-36 388.28,-36 382.28,-36 376.28,-30 376.28,-24 376.28,-24 376.28,-12 376.28,-12 376.28,-6 382.28,0 388.28,0 388.28,0 418.28,0 418.28,0 424.28,0 430.28,-6 430.28,-12 430.28,-12 430.28,-24 430.28,-24 430.28,-30 424.28,-36 418.28,-36"/>
<text text-anchor="middle" x="403.28" y="-14.88" font-family="sans" font-size="10.00">all</text>
</g>
<!-- 1 -->
<g id="node2" class="node">
<title>1</title>
<path fill="none" stroke="#c6d856" stroke-width="2" d="M113.78,-468C113.78,-468 40.78,-468 40.78,-468 34.78,-468 28.78,-462 28.78,-456 28.78,-456 28.78,-444 28.78,-444 28.78,-438 34.78,-432 40.78,-432 40.78,-432 113.78,-432 113.78,-432 119.78,-432 125.78,-438 125.78,-444 125.78,-444 125.78,-456 125.78,-456 125.78,-462 119.78,-468 113.78,-468"/>
<text text-anchor="middle" x="77.28" y="-453.25" font-family="sans" font-size="10.00">trim</text>
<text text-anchor="middle" x="77.28" y="-440.5" font-family="sans" font-size="10.00">sample: reads_B</text>
</g>
<!-- 1&#45;&gt;0 -->
<g id="edge1" class="edge">
<title>1&#45;&gt;0</title>
<path fill="none" stroke="grey" stroke-width="2" d="M51.27,-431.1C39.79,-421.9 27.14,-409.73 19.28,-396 -0.83,-360.91 0.28,-347.45 0.28,-307 0.28,-307 0.28,-307 0.28,-161 0.28,-104.74 40.22,-97.67 90.28,-72 179.83,-26.08 300.88,-18.71 362.93,-18.25"/>
<polygon fill="grey" stroke="grey" stroke-width="2" points="362.57,-21.75 372.57,-18.25 362.57,-14.75 362.57,-21.75"/>
</g>
<!-- 3 -->
<g id="node4" class="node">
<title>3</title>
<path fill="none" stroke="#d87d56" stroke-width="2" d="M198.4,-396C198.4,-396 156.15,-396 156.15,-396 150.15,-396 144.15,-390 144.15,-384 144.15,-384 144.15,-372 144.15,-372 144.15,-366 150.15,-360 156.15,-360 156.15,-360 198.4,-360 198.4,-360 204.4,-360 210.4,-366 210.4,-372 210.4,-372 210.4,-384 210.4,-384 210.4,-390 204.4,-396 198.4,-396"/>
<text text-anchor="middle" x="177.28" y="-374.88" font-family="sans" font-size="10.00">sortmerna</text>
</g>
<!-- 1&#45;&gt;3 -->
<g id="edge8" class="edge">
<title>1&#45;&gt;3</title>
<path fill="none" stroke="grey" stroke-width="2" d="M102.77,-431.15C114.52,-422.93 128.68,-413.02 141.48,-404.06"/>
<polygon fill="grey" stroke="grey" stroke-width="2" points="143.17,-407.15 149.35,-398.55 139.15,-401.42 143.17,-407.15"/>
</g>
<!-- 10 -->
<g id="node11" class="node">
<title>10</title>
<path fill="none" stroke="#56d8c9" stroke-width="2" d="M114.15,-396C114.15,-396 40.4,-396 40.4,-396 34.4,-396 28.4,-390 28.4,-384 28.4,-384 28.4,-372 28.4,-372 28.4,-366 34.4,-360 40.4,-360 40.4,-360 114.15,-360 114.15,-360 120.15,-360 126.15,-366 126.15,-372 126.15,-372 126.15,-384 126.15,-384 126.15,-390 120.15,-396 114.15,-396"/>
<text text-anchor="middle" x="77.28" y="-374.88" font-family="sans" font-size="10.00">fastqc_post_trim</text>
</g>
<!-- 1&#45;&gt;10 -->
<g id="edge23" class="edge">
<title>1&#45;&gt;10</title>
<path fill="none" stroke="grey" stroke-width="2" d="M77.28,-431.34C77.28,-424.75 77.28,-417.08 77.28,-409.67"/>
<polygon fill="grey" stroke="grey" stroke-width="2" points="80.78,-409.93 77.28,-399.93 73.78,-409.93 80.78,-409.93"/>
</g>
<!-- 2 -->
<g id="node3" class="node">
<title>2</title>
<path fill="none" stroke="#c6d856" stroke-width="2" d="M409.78,-468C409.78,-468 336.78,-468 336.78,-468 330.78,-468 324.78,-462 324.78,-456 324.78,-456 324.78,-444 324.78,-444 324.78,-438 330.78,-432 336.78,-432 336.78,-432 409.78,-432 409.78,-432 415.78,-432 421.78,-438 421.78,-444 421.78,-444 421.78,-456 421.78,-456 421.78,-462 415.78,-468 409.78,-468"/>
<text text-anchor="middle" x="373.28" y="-453.25" font-family="sans" font-size="10.00">trim</text>
<text text-anchor="middle" x="373.28" y="-440.5" font-family="sans" font-size="10.00">sample: reads_A</text>
</g>
<!-- 2&#45;&gt;0 -->
<g id="edge2" class="edge">
<title>2&#45;&gt;0</title>
<path fill="none" stroke="grey" stroke-width="2" d="M422.6,-447.88C509.38,-443 680.28,-419.16 680.28,-307 680.28,-307 680.28,-307 680.28,-161 680.28,-56.11 521.04,-28.64 444.04,-21.49"/>
<polygon fill="grey" stroke="grey" stroke-width="2" points="444.38,-18.01 434.12,-20.67 443.8,-24.99 444.38,-18.01"/>
</g>
<!-- 6 -->
<g id="node7" class="node">
<title>6</title>
<path fill="none" stroke="#d87d56" stroke-width="2" d="M422.4,-396C422.4,-396 380.15,-396 380.15,-396 374.15,-396 368.15,-390 368.15,-384 368.15,-384 368.15,-372 368.15,-372 368.15,-366 374.15,-360 380.15,-360 380.15,-360 422.4,-360 422.4,-360 428.4,-360 434.4,-366 434.4,-372 434.4,-372 434.4,-384 434.4,-384 434.4,-390 428.4,-396 422.4,-396"/>
<text text-anchor="middle" x="401.28" y="-374.88" font-family="sans" font-size="10.00">sortmerna</text>
</g>
<!-- 2&#45;&gt;6 -->
<g id="edge12" class="edge">
<title>2&#45;&gt;6</title>
<path fill="none" stroke="grey" stroke-width="2" d="M380.34,-431.34C383.07,-424.51 386.28,-416.5 389.34,-408.83"/>
<polygon fill="grey" stroke="grey" stroke-width="2" points="392.53,-410.3 392.99,-399.71 386.03,-407.7 392.53,-410.3"/>
</g>
<!-- 11 -->
<g id="node12" class="node">
<title>11</title>
<path fill="none" stroke="#56d8c9" stroke-width="2" d="M267.15,-180C267.15,-180 193.4,-180 193.4,-180 187.4,-180 181.4,-174 181.4,-168 181.4,-168 181.4,-156 181.4,-156 181.4,-150 187.4,-144 193.4,-144 193.4,-144 267.15,-144 267.15,-144 273.15,-144 279.15,-150 279.15,-156 279.15,-156 279.15,-168 279.15,-168 279.15,-174 273.15,-180 267.15,-180"/>
<text text-anchor="middle" x="230.28" y="-158.88" font-family="sans" font-size="10.00">fastqc_post_trim</text>
</g>
<!-- 2&#45;&gt;11 -->
<g id="edge24" class="edge">
<title>2&#45;&gt;11</title>
<path fill="none" stroke="grey" stroke-width="2" d="M356.93,-431.09C328.07,-398.31 268.59,-325.3 241.28,-252 234.37,-233.47 231.61,-211.41 230.58,-193.89"/>
<polygon fill="grey" stroke="grey" stroke-width="2" points="234.08,-193.85 230.2,-183.99 227.09,-194.12 234.08,-193.85"/>
</g>
<!-- 3&#45;&gt;0 -->
<g id="edge3" class="edge">
<title>3&#45;&gt;0</title>
<path fill="none" stroke="grey" stroke-width="2" d="M153.58,-359.2C124.01,-334.75 77.28,-287.77 77.28,-235 77.28,-235 77.28,-235 77.28,-161 77.28,-37.82 275.34,-20.39 362.7,-18.7"/>
<polygon fill="grey" stroke="grey" stroke-width="2" points="362.5,-22.2 372.46,-18.59 362.42,-15.2 362.5,-22.2"/>
</g>
<!-- 8 -->
<g id="node9" class="node">
<title>8</title>
<path fill="none" stroke="#9fd856" stroke-width="2" d="M192.78,-324C192.78,-324 161.78,-324 161.78,-324 155.78,-324 149.78,-318 149.78,-312 149.78,-312 149.78,-300 149.78,-300 149.78,-294 155.78,-288 161.78,-288 161.78,-288 192.78,-288 192.78,-288 198.78,-288 204.78,-294 204.78,-300 204.78,-300 204.78,-312 204.78,-312 204.78,-318 198.78,-324 192.78,-324"/>
<text text-anchor="middle" x="177.28" y="-302.88" font-family="sans" font-size="10.00">kraken2</text>
</g>
<!-- 3&#45;&gt;8 -->
<g id="edge21" class="edge">
<title>3&#45;&gt;8</title>
<path fill="none" stroke="grey" stroke-width="2" d="M177.28,-359.34C177.28,-352.75 177.28,-345.08 177.28,-337.67"/>
<polygon fill="grey" stroke="grey" stroke-width="2" points="180.78,-337.93 177.28,-327.93 173.78,-337.93 180.78,-337.93"/>
</g>
<!-- 13 -->
<g id="node14" class="node">
<title>13</title>
<path fill="none" stroke="#56d8a2" stroke-width="2" d="M320.65,-252C320.65,-252 261.9,-252 261.9,-252 255.9,-252 249.9,-246 249.9,-240 249.9,-240 249.9,-228 249.9,-228 249.9,-222 255.9,-216 261.9,-216 261.9,-216 320.65,-216 320.65,-216 326.65,-216 332.65,-222 332.65,-228 332.65,-228 332.65,-240 332.65,-240 332.65,-246 326.65,-252 320.65,-252"/>
<text text-anchor="middle" x="291.28" y="-230.88" font-family="sans" font-size="10.00">kraken2_filter</text>
</g>
<!-- 3&#45;&gt;13 -->
<g id="edge27" class="edge">
<title>3&#45;&gt;13</title>
<path fill="none" stroke="grey" stroke-width="2" d="M191.72,-359.02C211.16,-334.8 245.96,-291.45 268.83,-262.96"/>
<polygon fill="grey" stroke="grey" stroke-width="2" points="271.53,-265.19 275.06,-255.2 266.07,-260.81 271.53,-265.19"/>
</g>
<!-- 4 -->
<g id="node5" class="node">
<title>4</title>
<path fill="none" stroke="#d8a456" stroke-width="2" d="M283.03,-540C283.03,-540 229.53,-540 229.53,-540 223.53,-540 217.53,-534 217.53,-528 217.53,-528 217.53,-516 217.53,-516 217.53,-510 223.53,-504 229.53,-504 229.53,-504 283.03,-504 283.03,-504 289.03,-504 295.03,-510 295.03,-516 295.03,-516 295.03,-528 295.03,-528 295.03,-534 289.03,-540 283.03,-540"/>
<text text-anchor="middle" x="256.28" y="-518.88" font-family="sans" font-size="10.00">symlink_dbs</text>
</g>
<!-- 4&#45;&gt;3 -->
<g id="edge9" class="edge">
<title>4&#45;&gt;3</title>
<path fill="none" stroke="grey" stroke-width="2" d="M229.06,-503.04C217.27,-493.9 204.34,-481.8 196.28,-468 185.92,-450.28 181.19,-427.63 179.03,-409.61"/>
<polygon fill="grey" stroke="grey" stroke-width="2" points="182.54,-409.54 178.12,-399.91 175.57,-410.2 182.54,-409.54"/>
</g>
<!-- 5 -->
<g id="node6" class="node">
<title>5</title>
<path fill="none" stroke="#56d87b" stroke-width="2" d="M295.03,-468C295.03,-468 217.53,-468 217.53,-468 211.53,-468 205.53,-462 205.53,-456 205.53,-456 205.53,-444 205.53,-444 205.53,-438 211.53,-432 217.53,-432 217.53,-432 295.03,-432 295.03,-432 301.03,-432 307.03,-438 307.03,-444 307.03,-444 307.03,-456 307.03,-456 307.03,-462 301.03,-468 295.03,-468"/>
<text text-anchor="middle" x="256.28" y="-446.88" font-family="sans" font-size="10.00">sortmerna_install</text>
</g>
<!-- 4&#45;&gt;5 -->
<g id="edge11" class="edge">
<title>4&#45;&gt;5</title>
<path fill="none" stroke="grey" stroke-width="2" d="M256.28,-503.34C256.28,-496.75 256.28,-489.08 256.28,-481.67"/>
<polygon fill="grey" stroke="grey" stroke-width="2" points="259.78,-481.93 256.28,-471.93 252.78,-481.93 259.78,-481.93"/>
</g>
<!-- 4&#45;&gt;6 -->
<g id="edge13" class="edge">
<title>4&#45;&gt;6</title>
<path fill="none" stroke="grey" stroke-width="2" d="M295.82,-521.58C337.16,-519.8 400.26,-509.81 431.28,-468 444.54,-450.13 435.14,-426.03 423.47,-407.41"/>
<polygon fill="grey" stroke="grey" stroke-width="2" points="426.53,-405.68 418,-399.4 420.75,-409.63 426.53,-405.68"/>
</g>
<!-- 5&#45;&gt;3 -->
<g id="edge10" class="edge">
<title>5&#45;&gt;3</title>
<path fill="none" stroke="grey" stroke-width="2" d="M236.34,-431.34C227.52,-423.52 216.96,-414.16 207.22,-405.53"/>
<polygon fill="grey" stroke="grey" stroke-width="2" points="209.55,-402.92 199.75,-398.91 204.91,-408.16 209.55,-402.92"/>
</g>
<!-- 5&#45;&gt;6 -->
<g id="edge14" class="edge">
<title>5&#45;&gt;6</title>
<path fill="none" stroke="grey" stroke-width="2" d="M293.24,-431.15C312.23,-421.99 335.54,-410.73 355.64,-401.03"/>
<polygon fill="grey" stroke="grey" stroke-width="2" points="357.15,-404.19 364.64,-396.69 354.11,-397.88 357.15,-404.19"/>
</g>
<!-- 6&#45;&gt;0 -->
<g id="edge4" class="edge">
<title>6&#45;&gt;0</title>
<path fill="none" stroke="grey" stroke-width="2" d="M435.32,-375.87C477.45,-372.81 549.34,-361.92 596.28,-324 630.91,-296.02 642.28,-279.53 642.28,-235 642.28,-235 642.28,-235 642.28,-161 642.28,-69.83 512.14,-35.89 443.92,-24.36"/>
<polygon fill="grey" stroke="grey" stroke-width="2" points="444.58,-20.92 434.15,-22.82 443.48,-27.83 444.58,-20.92"/>
</g>
<!-- 9 -->
<g id="node10" class="node">
<title>9</title>
<path fill="none" stroke="#9fd856" stroke-width="2" d="M388.78,-324C388.78,-324 357.78,-324 357.78,-324 351.78,-324 345.78,-318 345.78,-312 345.78,-312 345.78,-300 345.78,-300 345.78,-294 351.78,-288 357.78,-288 357.78,-288 388.78,-288 388.78,-288 394.78,-288 400.78,-294 400.78,-300 400.78,-300 400.78,-312 400.78,-312 400.78,-318 394.78,-324 388.78,-324"/>
<text text-anchor="middle" x="373.28" y="-302.88" font-family="sans" font-size="10.00">kraken2</text>
</g>
<!-- 6&#45;&gt;9 -->
<g id="edge22" class="edge">
<title>6&#45;&gt;9</title>
<path fill="none" stroke="grey" stroke-width="2" d="M394.21,-359.34C391.48,-352.51 388.28,-344.5 385.21,-336.83"/>
<polygon fill="grey" stroke="grey" stroke-width="2" points="388.53,-335.7 381.56,-327.71 382.03,-338.3 388.53,-335.7"/>
</g>
<!-- 17 -->
<g id="node18" class="node">
<title>17</title>
<path fill="none" stroke="#56d8a2" stroke-width="2" d="M458.65,-252C458.65,-252 399.9,-252 399.9,-252 393.9,-252 387.9,-246 387.9,-240 387.9,-240 387.9,-228 387.9,-228 387.9,-222 393.9,-216 399.9,-216 399.9,-216 458.65,-216 458.65,-216 464.65,-216 470.65,-222 470.65,-228 470.65,-228 470.65,-240 470.65,-240 470.65,-246 464.65,-252 458.65,-252"/>
<text text-anchor="middle" x="429.28" y="-230.88" font-family="sans" font-size="10.00">kraken2_filter</text>
</g>
<!-- 6&#45;&gt;17 -->
<g id="edge32" class="edge">
<title>6&#45;&gt;17</title>
<path fill="none" stroke="grey" stroke-width="2" d="M404.82,-359.02C409.47,-335.44 417.7,-293.73 423.31,-265.25"/>
<polygon fill="grey" stroke="grey" stroke-width="2" points="426.67,-266.3 425.17,-255.81 419.81,-264.94 426.67,-266.3"/>
</g>
<!-- 7 -->
<g id="node8" class="node">
<title>7</title>
<path fill="none" stroke="#56a2d8" stroke-width="2" d="M322.28,-108C322.28,-108 292.28,-108 292.28,-108 286.28,-108 280.28,-102 280.28,-96 280.28,-96 280.28,-84 280.28,-84 280.28,-78 286.28,-72 292.28,-72 292.28,-72 322.28,-72 322.28,-72 328.28,-72 334.28,-78 334.28,-84 334.28,-84 334.28,-96 334.28,-96 334.28,-102 328.28,-108 322.28,-108"/>
<text text-anchor="middle" x="307.28" y="-86.88" font-family="sans" font-size="10.00">multiqc</text>
</g>
<!-- 7&#45;&gt;0 -->
<g id="edge5" class="edge">
<title>7&#45;&gt;0</title>
<path fill="none" stroke="grey" stroke-width="2" d="M331.75,-71.15C342.92,-63.01 356.35,-53.22 368.54,-44.33"/>
<polygon fill="grey" stroke="grey" stroke-width="2" points="370.39,-47.32 376.4,-38.6 366.26,-41.66 370.39,-47.32"/>
</g>
<!-- 8&#45;&gt;7 -->
<g id="edge15" class="edge">
<title>8&#45;&gt;7</title>
<path fill="none" stroke="grey" stroke-width="2" d="M170.48,-287.17C159.6,-255.32 142.35,-187.9 172.28,-144 193.25,-113.24 235.04,-100.33 266.6,-94.91"/>
<polygon fill="grey" stroke="grey" stroke-width="2" points="267.03,-98.39 276.41,-93.46 266.01,-91.46 267.03,-98.39"/>
</g>
<!-- 8&#45;&gt;13 -->
<g id="edge28" class="edge">
<title>8&#45;&gt;13</title>
<path fill="none" stroke="grey" stroke-width="2" d="M205.75,-287.52C219.41,-279.13 236.02,-268.93 250.96,-259.76"/>
<polygon fill="grey" stroke="grey" stroke-width="2" points="252.71,-262.79 259.4,-254.58 249.04,-256.83 252.71,-262.79"/>
</g>
<!-- 9&#45;&gt;7 -->
<g id="edge16" class="edge">
<title>9&#45;&gt;7</title>
<path fill="none" stroke="grey" stroke-width="2" d="M367.16,-287.17C360.9,-269.14 350.78,-240.49 341.28,-216 335.01,-199.84 331.44,-196.55 326.28,-180 320.33,-160.96 315.63,-139.05 312.39,-121.74"/>
<polygon fill="grey" stroke="grey" stroke-width="2" points="315.85,-121.19 310.64,-111.96 308.96,-122.42 315.85,-121.19"/>
</g>
<!-- 9&#45;&gt;17 -->
<g id="edge33" class="edge">
<title>9&#45;&gt;17</title>
<path fill="none" stroke="grey" stroke-width="2" d="M387.41,-287.34C393.33,-279.93 400.36,-271.14 406.96,-262.9"/>
<polygon fill="grey" stroke="grey" stroke-width="2" points="409.55,-265.26 413.07,-255.27 404.09,-260.89 409.55,-265.26"/>
</g>
<!-- 10&#45;&gt;7 -->
<g id="edge17" class="edge">
<title>10&#45;&gt;7</title>
<path fill="none" stroke="grey" stroke-width="2" d="M78.01,-359.09C80.72,-316.01 93.56,-205.59 154.28,-144 184.16,-113.69 232.21,-100.69 266.49,-95.13"/>
<polygon fill="grey" stroke="grey" stroke-width="2" points="266.94,-98.61 276.34,-93.72 265.94,-91.68 266.94,-98.61"/>
</g>
<!-- 11&#45;&gt;7 -->
<g id="edge18" class="edge">
<title>11&#45;&gt;7</title>
<path fill="none" stroke="grey" stroke-width="2" d="M249.71,-143.34C258.31,-135.52 268.6,-126.16 278.09,-117.53"/>
<polygon fill="grey" stroke="grey" stroke-width="2" points="280.3,-120.25 285.35,-110.94 275.59,-115.07 280.3,-120.25"/>
</g>
<!-- 12 -->
<g id="node13" class="node">
<title>12</title>
<path fill="none" stroke="#567bd8" stroke-width="2" d="M415.53,-180C415.53,-180 347.03,-180 347.03,-180 341.03,-180 335.03,-174 335.03,-168 335.03,-168 335.03,-156 335.03,-156 335.03,-150 341.03,-144 347.03,-144 347.03,-144 415.53,-144 415.53,-144 421.53,-144 427.53,-150 427.53,-156 427.53,-156 427.53,-168 427.53,-168 427.53,-174 421.53,-180 415.53,-180"/>
<text text-anchor="middle" x="381.28" y="-158.88" font-family="sans" font-size="10.00">read_alignment</text>
</g>
<!-- 12&#45;&gt;7 -->
<g id="edge19" class="edge">
<title>12&#45;&gt;7</title>
<path fill="none" stroke="grey" stroke-width="2" d="M362.6,-143.34C354.43,-135.6 344.66,-126.36 335.62,-117.81"/>
<polygon fill="grey" stroke="grey" stroke-width="2" points="338.07,-115.31 328.4,-110.98 333.26,-120.4 338.07,-115.31"/>
</g>
<!-- 18 -->
<g id="node19" class="node">
<title>18</title>
<path fill="none" stroke="#59d856" stroke-width="2" d="M420.28,-108C420.28,-108 386.28,-108 386.28,-108 380.28,-108 374.28,-102 374.28,-96 374.28,-96 374.28,-84 374.28,-84 374.28,-78 380.28,-72 386.28,-72 386.28,-72 420.28,-72 420.28,-72 426.28,-72 432.28,-78 432.28,-84 432.28,-84 432.28,-96 432.28,-96 432.28,-102 426.28,-108 420.28,-108"/>
<text text-anchor="middle" x="403.28" y="-86.88" font-family="sans" font-size="10.00">all_STAR</text>
</g>
<!-- 12&#45;&gt;18 -->
<g id="edge34" class="edge">
<title>12&#45;&gt;18</title>
<path fill="none" stroke="grey" stroke-width="2" d="M386.83,-143.34C388.95,-136.59 391.43,-128.69 393.81,-121.11"/>
<polygon fill="grey" stroke="grey" stroke-width="2" points="397.08,-122.38 396.74,-111.79 390.41,-120.28 397.08,-122.38"/>
</g>
<!-- 19 -->
<g id="node20" class="node">
<title>19</title>
<path fill="none" stroke="#d8c356" stroke-width="2" d="M522.03,-108C522.03,-108 462.53,-108 462.53,-108 456.53,-108 450.53,-102 450.53,-96 450.53,-96 450.53,-84 450.53,-84 450.53,-78 456.53,-72 462.53,-72 462.53,-72 522.03,-72 522.03,-72 528.03,-72 534.03,-78 534.03,-84 534.03,-84 534.03,-96 534.03,-96 534.03,-102 528.03,-108 522.03,-108"/>
<text text-anchor="middle" x="492.28" y="-86.88" font-family="sans" font-size="10.00">featurecounts</text>
</g>
<!-- 12&#45;&gt;19 -->
<g id="edge37" class="edge">
<title>12&#45;&gt;19</title>
<path fill="none" stroke="grey" stroke-width="2" d="M409.57,-143.15C422.88,-134.76 438.96,-124.62 453.39,-115.52"/>
<polygon fill="grey" stroke="grey" stroke-width="2" points="454.88,-118.72 461.47,-110.43 451.15,-112.8 454.88,-118.72"/>
</g>
<!-- 13&#45;&gt;12 -->
<g id="edge25" class="edge">
<title>13&#45;&gt;12</title>
<path fill="none" stroke="grey" stroke-width="2" d="M313.99,-215.34C324.35,-207.27 336.83,-197.57 348.21,-188.72"/>
<polygon fill="grey" stroke="grey" stroke-width="2" points="350.13,-191.66 355.87,-182.76 345.83,-186.14 350.13,-191.66"/>
</g>
<!-- 14 -->
<g id="node15" class="node">
<title>14</title>
<path fill="none" stroke="#78d856" stroke-width="2" d="M564.28,-252C564.28,-252 500.28,-252 500.28,-252 494.28,-252 488.28,-246 488.28,-240 488.28,-240 488.28,-228 488.28,-228 488.28,-222 494.28,-216 500.28,-216 500.28,-216 564.28,-216 564.28,-216 570.28,-216 576.28,-222 576.28,-228 576.28,-228 576.28,-240 576.28,-240 576.28,-246 570.28,-252 564.28,-252"/>
<text text-anchor="middle" x="532.28" y="-230.88" font-family="sans" font-size="10.00">genome_index</text>
</g>
<!-- 14&#45;&gt;12 -->
<g id="edge26" class="edge">
<title>14&#45;&gt;12</title>
<path fill="none" stroke="grey" stroke-width="2" d="M493.78,-215.15C474.87,-206.38 451.83,-195.71 431.54,-186.3"/>
<polygon fill="grey" stroke="grey" stroke-width="2" points="433.25,-183.24 422.71,-182.21 430.31,-189.59 433.25,-183.24"/>
</g>
<!-- 16 -->
<g id="node17" class="node">
<title>16</title>
<path fill="none" stroke="#567bd8" stroke-width="2" d="M526.53,-180C526.53,-180 458.03,-180 458.03,-180 452.03,-180 446.03,-174 446.03,-168 446.03,-168 446.03,-156 446.03,-156 446.03,-150 452.03,-144 458.03,-144 458.03,-144 526.53,-144 526.53,-144 532.53,-144 538.53,-150 538.53,-156 538.53,-156 538.53,-168 538.53,-168 538.53,-174 532.53,-180 526.53,-180"/>
<text text-anchor="middle" x="492.28" y="-158.88" font-family="sans" font-size="10.00">read_alignment</text>
</g>
<!-- 14&#45;&gt;16 -->
<g id="edge31" class="edge">
<title>14&#45;&gt;16</title>
<path fill="none" stroke="grey" stroke-width="2" d="M522.18,-215.34C518.14,-208.26 513.38,-199.92 508.85,-192"/>
<polygon fill="grey" stroke="grey" stroke-width="2" points="512.01,-190.48 504.01,-183.53 505.93,-193.95 512.01,-190.48"/>
</g>
<!-- 14&#45;&gt;18 -->
<g id="edge36" class="edge">
<title>14&#45;&gt;18</title>
<path fill="none" stroke="grey" stroke-width="2" d="M542.32,-215.22C551.75,-195.91 562.34,-165.02 547.28,-144 520.51,-106.64 492.26,-123.1 445.1,-108.83"/>
<polygon fill="grey" stroke="grey" stroke-width="2" points="446.49,-105.61 435.9,-105.62 444.19,-112.22 446.49,-105.61"/>
</g>
<!-- 15 -->
<g id="node16" class="node">
<title>15</title>
<path fill="none" stroke="#56c9d8" stroke-width="2" stroke-dasharray="5,2" d="M575.28,-324C575.28,-324 545.28,-324 545.28,-324 539.28,-324 533.28,-318 533.28,-312 533.28,-312 533.28,-300 533.28,-300 533.28,-294 539.28,-288 545.28,-288 545.28,-288 575.28,-288 575.28,-288 581.28,-288 587.28,-294 587.28,-300 587.28,-300 587.28,-312 587.28,-312 587.28,-318 581.28,-324 575.28,-324"/>
<text text-anchor="middle" x="560.28" y="-302.88" font-family="sans" font-size="10.00">gff2gtf</text>
</g>
<!-- 15&#45;&gt;14 -->
<g id="edge29" class="edge">
<title>15&#45;&gt;14</title>
<path fill="none" stroke="grey" stroke-width="2" d="M553.21,-287.34C550.48,-280.51 547.28,-272.5 544.21,-264.83"/>
<polygon fill="grey" stroke="grey" stroke-width="2" points="547.53,-263.7 540.56,-255.71 541.03,-266.3 547.53,-263.7"/>
</g>
<!-- 15&#45;&gt;19 -->
<g id="edge39" class="edge">
<title>15&#45;&gt;19</title>
<path fill="none" stroke="grey" stroke-width="2" d="M571.16,-287.08C576.57,-277.13 582.52,-264.31 585.28,-252 595.97,-204.28 592.29,-184.08 564.28,-144 556.81,-133.31 546.49,-123.93 535.99,-116.15"/>
<polygon fill="grey" stroke="grey" stroke-width="2" points="538.24,-113.45 528.03,-110.64 534.26,-119.21 538.24,-113.45"/>
</g>
<!-- 16&#45;&gt;7 -->
<g id="edge20" class="edge">
<title>16&#45;&gt;7</title>
<path fill="none" stroke="grey" stroke-width="2" d="M445.12,-143.15C414.81,-131.69 375.87,-116.96 347.12,-106.08"/>
<polygon fill="grey" stroke="grey" stroke-width="2" points="348.51,-102.86 337.92,-102.59 346.03,-109.41 348.51,-102.86"/>
</g>
<!-- 16&#45;&gt;18 -->
<g id="edge35" class="edge">
<title>16&#45;&gt;18</title>
<path fill="none" stroke="grey" stroke-width="2" d="M469.82,-143.34C459.57,-135.27 447.23,-125.57 435.98,-116.72"/>
<polygon fill="grey" stroke="grey" stroke-width="2" points="438.44,-114.2 428.42,-110.77 434.11,-119.71 438.44,-114.2"/>
</g>
<!-- 16&#45;&gt;19 -->
<g id="edge38" class="edge">
<title>16&#45;&gt;19</title>
<path fill="none" stroke="grey" stroke-width="2" d="M492.28,-143.34C492.28,-136.75 492.28,-129.08 492.28,-121.67"/>
<polygon fill="grey" stroke="grey" stroke-width="2" points="495.78,-121.93 492.28,-111.93 488.78,-121.93 495.78,-121.93"/>
</g>
<!-- 17&#45;&gt;16 -->
<g id="edge30" class="edge">
<title>17&#45;&gt;16</title>
<path fill="none" stroke="grey" stroke-width="2" d="M445.18,-215.34C451.99,-207.77 460.1,-198.75 467.66,-190.35"/>
<polygon fill="grey" stroke="grey" stroke-width="2" points="470.05,-192.93 474.14,-183.15 464.85,-188.24 470.05,-192.93"/>
</g>
<!-- 18&#45;&gt;0 -->
<g id="edge6" class="edge">
<title>18&#45;&gt;0</title>
<path fill="none" stroke="grey" stroke-width="2" d="M403.28,-71.34C403.28,-64.75 403.28,-57.08 403.28,-49.67"/>
<polygon fill="grey" stroke="grey" stroke-width="2" points="406.78,-49.93 403.28,-39.93 399.78,-49.93 406.78,-49.93"/>
</g>
<!-- 19&#45;&gt;0 -->
<g id="edge7" class="edge">
<title>19&#45;&gt;0</title>
<path fill="none" stroke="grey" stroke-width="2" d="M469.82,-71.34C459.57,-63.27 447.23,-53.57 435.98,-44.72"/>
<polygon fill="grey" stroke="grey" stroke-width="2" points="438.44,-42.2 428.42,-38.77 434.11,-47.71 438.44,-42.2"/>
</g>
</g>
</svg>
